<svg width="995" height="835" viewBox="0 0 995 835" fill="none" xmlns="http://www.w3.org/2000/svg">
<g clip-path="url(#clip0)">
<g clip-path="url(#clip1)">
<path fill-rule="evenodd" clip-rule="evenodd" d="M770.358 370.069C767.534 369.313 765.032 367.4 763.639 364.572C761.039 359.36 763.174 353.035 768.391 350.449C808.687 330.449 828.484 276.39 828.672 275.851C830.636 270.365 836.774 267.566 842.161 269.476C847.647 271.424 850.509 277.449 848.558 282.928C847.647 285.466 825.799 345.501 777.779 369.326C775.383 370.518 772.753 370.709 770.358 370.069Z" fill="black"/>
<path fill-rule="evenodd" clip-rule="evenodd" d="M879.683 426.186C879.683 355.817 822.559 298.769 752.096 298.769C719.709 298.769 690.245 310.91 667.745 330.766H667.735C664.147 333.938 660.749 337.31 657.53 340.862C596.111 397.572 618.536 482.284 588.355 512.268C551.64 548.743 555.872 605.717 617.186 615.813C753.943 638.346 835.434 522.786 835.434 522.786C856.297 500.095 879.683 459.404 879.683 426.186Z" fill="#FAD841"/>
<path fill-rule="evenodd" clip-rule="evenodd" d="M869.068 375.368C869.068 375.789 869.131 376.19 869.131 376.611C869.131 415.353 841.851 462.81 817.526 489.262C817.526 489.262 729.661 613.728 581.19 600.038C589.675 607.594 601.547 613.243 617.187 615.814C753.944 638.336 835.435 522.787 835.435 522.787C856.288 500.096 879.684 459.405 879.684 426.187C879.684 408.112 875.864 390.944 869.068 375.368Z" fill="#FAAC28"/>
<path fill-rule="evenodd" clip-rule="evenodd" d="M752.096 309.306C723.656 309.306 696.186 319.729 674.732 338.657C671.502 341.513 668.347 344.622 665.36 347.932C631.147 379.57 624.583 419.712 618.779 455.113C614.4 481.892 610.611 505.025 595.794 519.738C579.047 536.389 571.818 558.384 577.379 575.753C582.36 591.298 597.103 601.826 618.906 605.42C747.696 626.656 826.031 517.82 826.812 516.713C827.065 516.344 827.35 515.986 827.667 515.649C848.266 493.243 869.13 455.313 869.13 426.183C869.13 361.738 816.628 309.306 752.096 309.306ZM652.834 629.312C640.877 629.312 628.425 628.342 615.476 626.203C585.463 621.27 564.789 605.631 557.286 582.192C549.192 556.962 558.257 527.315 580.915 504.794C590.877 494.887 594.159 474.884 597.947 451.709C603.984 414.875 611.487 369.02 650.364 333.124C653.214 329.91 656.939 326.232 660.749 322.87C686.066 300.527 718.506 288.228 752.096 288.228C828.268 288.228 890.236 350.113 890.236 426.183C890.236 462.079 866.175 504.72 843.644 529.434C837.038 538.56 768.422 629.301 652.834 629.312Z" fill="black"/>
<path d="M688.632 435.352C697.555 435.352 704.789 428.13 704.789 419.221C704.789 410.312 697.555 403.09 688.632 403.09C679.708 403.09 672.475 410.312 672.475 419.221C672.475 428.13 679.708 435.352 688.632 435.352Z" fill="black"/>
<path d="M814.388 435.352C823.311 435.352 830.545 428.13 830.545 419.221C830.545 410.312 823.311 403.09 814.388 403.09C805.465 403.09 798.231 410.312 798.231 419.221C798.231 428.13 805.465 435.352 814.388 435.352Z" fill="black"/>
<path d="M751.895 514.382C722.914 514.382 701.254 491.528 701.254 471.091C701.254 465.079 703.105 460.404 706.749 457.21C713.282 451.474 722.705 452.695 733.619 454.108C739.671 455.012 745.776 455.523 751.895 455.638C758.014 455.523 764.119 455.012 770.171 454.108C774.518 453.446 778.901 453.052 783.296 452.929C788.649 452.929 793.348 453.941 797.041 457.21C800.735 460.48 802.536 465.079 802.536 471.091C802.536 491.528 780.876 514.382 751.895 514.382Z" fill="black"/>
<ellipse rx="30.5721" ry="13.3794" transform="matrix(-1 0 0 1 751.627 488.384)" fill="#FF0000"/>
<path d="M308.058 310.876C327.042 328.094 346.662 345.889 369.488 362.71C387.049 375.654 400.098 391.443 408.28 409.61C415.747 426.257 418.977 444.498 417.87 463.833C416.505 488.256 408.31 513.133 394.115 535.81C380.362 557.717 361.598 576.277 341.16 588.071C320.722 599.865 295.257 606.826 269.399 607.777C242.668 608.751 216.967 603.399 195.122 592.368C177.861 583.633 163.657 571.724 152.98 556.93C141.316 540.772 134.16 521.583 131.724 499.91C128.563 471.743 122.954 445.864 117.527 420.823L117.516 420.773C109.904 385.66 103.339 355.321 105.799 328.461C108.625 297.653 123.087 275.723 151.32 259.432C179.553 243.14 205.785 241.586 233.893 254.544C258.397 265.846 281.388 286.688 308.021 310.843L308.058 310.876Z" fill="#241E08"/>
<path d="M330.469 569.594C367.374 548.298 394.846 503.909 397.235 461.646C398.604 437.567 392.631 403.312 356.479 376.678C333.96 360.095 313.957 341.97 296.299 325.969L296.208 325.887C271.464 303.456 250.094 284.085 228.503 274.148C205.746 263.668 185.292 264.942 162.187 278.275C139.081 291.608 127.751 308.675 125.453 333.612C123.268 357.269 129.367 385.452 136.48 418.083L136.505 418.202C141.54 441.487 147.244 467.864 150.353 495.647C155.342 540.263 182.037 562.561 203.551 573.411C241.329 592.471 293.563 590.891 330.469 569.594Z" fill="#BDDD8B"/>
<path fill-rule="evenodd" clip-rule="evenodd" d="M369.488 362.71C346.662 345.889 327.042 328.094 308.058 310.876L308.021 310.843C281.388 286.688 258.397 265.846 233.893 254.544C205.785 241.586 179.553 243.14 151.32 259.432C123.087 275.723 108.625 297.653 105.799 328.461C103.339 355.321 109.904 385.66 117.516 420.773L117.527 420.823C122.954 445.864 128.563 471.743 131.724 499.91C134.16 521.583 141.316 540.772 152.98 556.93C163.657 571.724 177.861 583.633 195.122 592.368C216.967 603.399 242.668 608.751 269.399 607.777C295.257 606.826 320.722 599.865 341.16 588.071C361.598 576.277 380.362 557.717 394.115 535.81C408.31 513.133 416.505 488.256 417.87 463.833C418.977 444.498 415.747 426.257 408.28 409.61C400.098 391.443 387.049 375.654 369.488 362.71ZM397.235 461.646C394.846 503.909 367.374 548.298 330.469 569.594C293.563 590.891 241.329 592.471 203.551 573.411C182.037 562.561 155.342 540.263 150.353 495.647C147.244 467.864 141.54 441.487 136.505 418.203L136.505 418.203L136.48 418.083C129.367 385.452 123.268 357.269 125.453 333.612C127.751 308.675 139.081 291.608 162.187 278.275C185.292 264.942 205.746 263.668 228.503 274.148C250.094 284.085 271.464 303.456 296.208 325.887L296.299 325.969L296.299 325.97C313.957 341.97 333.96 360.095 356.479 376.678C392.631 403.312 398.604 437.567 397.235 461.646Z" fill="#241E08"/>
<path fill-rule="evenodd" clip-rule="evenodd" d="M397.264 461.114C384.956 497.522 356.048 533.307 321.14 553.45C286.243 573.587 240.775 580.718 203.093 573.179C203.246 573.257 203.399 573.334 203.551 573.411C241.329 592.471 293.563 590.891 330.469 569.594C367.374 548.298 394.846 503.909 397.235 461.646C397.245 461.469 397.254 461.292 397.264 461.114Z" fill="#96C251"/>
<path d="M225.33 473.123C227.615 453.178 236.326 437.841 249.865 430.028C263.405 422.215 281.035 422.317 299.506 430.32C315.647 437.339 329.849 449.438 337.502 462.687C353.24 489.932 342.883 525.456 314.463 541.855C286.043 558.255 250.116 549.439 234.378 522.194C226.724 508.946 223.338 490.597 225.33 473.123Z" fill="#523315"/>
<path d="M236.37 471.965C238.088 456.709 244.719 444.986 255.047 439.026C265.375 433.067 278.836 433.168 292.951 439.315C305.285 444.707 316.144 453.982 322.005 464.128C334.058 484.993 326.196 512.158 304.518 524.667C282.84 537.177 255.395 530.385 243.343 509.52C237.482 499.374 234.872 485.332 236.37 471.965Z" fill="#A87441"/>
<path d="M250.948 470.382C251.955 461.382 255.86 454.469 261.946 450.957C268.032 447.445 275.967 447.51 284.29 451.142C291.563 454.327 297.968 459.803 301.427 465.791C308.54 478.105 303.916 494.128 291.141 501.499C278.367 508.871 262.186 504.854 255.073 492.54C251.614 486.552 250.07 478.267 250.948 470.382Z" fill="#DBB684"/>
<path d="M197.145 459.878C204.628 455.56 207.192 445.997 202.872 438.519C198.552 431.04 188.984 428.478 181.501 432.795C174.019 437.113 171.455 446.676 175.775 454.155C180.095 461.633 189.663 464.195 197.145 459.878Z" fill="black"/>
<path d="M302.595 399.028C310.078 394.71 312.641 385.148 308.321 377.669C304.001 370.19 294.434 367.628 286.951 371.946C279.469 376.264 276.905 385.826 281.225 393.305C285.545 400.783 295.113 403.346 302.595 399.028Z" fill="black"/>
<path fill-rule="evenodd" clip-rule="evenodd" d="M394.665 452.441C367.143 432.992 353.763 401.84 353.763 357.208C353.763 294.2 381.21 234.477 425.407 201.293L425.549 201.198C447.506 184.752 472.42 176.053 497.598 176.053C522.776 176.053 547.69 184.752 569.647 201.198L569.826 201.321C614.005 234.515 641.433 294.219 641.433 357.208C641.433 401.84 628.053 432.992 600.531 452.441C576.992 469.076 543.321 477.162 497.598 477.162C451.875 477.162 418.204 469.076 394.665 452.441Z" fill="#FFC700"/>
<path fill-rule="evenodd" clip-rule="evenodd" d="M651.541 342.283C651.856 345.94 652.016 349.637 652.016 353.368C652.016 379.842 643.938 404.597 629.903 425.699C626.53 436.762 617.201 446.9 603.525 455.343C576.074 478.8 539.149 493.167 498.54 493.167C471.117 493.167 445.375 486.616 423.095 475.138C451.904 480.506 482.434 479.672 512.76 471.55C580.52 453.404 630.959 403.246 651.541 342.283Z" fill="#FF9900"/>
<path d="M338.02 119.728C334.444 117.654 331.673 114.432 330.156 110.586C328.64 106.74 328.467 102.495 329.666 98.5381C330.865 94.5815 333.365 91.1458 336.761 88.7876C340.157 86.4294 344.251 85.2871 348.377 85.5457C372.19 86.9955 394.317 91.7402 414.485 99.6668C408.144 89.875 400.985 80.6381 393.083 72.0553C390.305 68.9949 388.642 65.0863 388.362 60.9626C388.083 56.8389 389.205 52.7418 391.546 49.335C393.886 45.9283 397.309 43.4114 401.259 42.1922C405.208 40.973 409.454 41.1229 413.308 42.6176C432.722 49.9833 450.985 60.083 467.543 72.6108L479.784 29.3061C480.862 25.4199 483.192 21.9977 486.413 19.5692C489.633 17.1406 493.565 15.8413 497.598 15.8722C501.635 15.8456 505.568 17.1513 508.787 19.587C512.007 22.0226 514.332 25.4521 515.403 29.3437L527.644 72.6484C544.202 60.1206 562.465 50.021 581.879 42.6552C585.727 41.1725 589.963 41.0291 593.903 42.2483C597.843 43.4674 601.257 45.978 603.595 49.375C605.933 52.772 607.059 56.8574 606.79 60.9722C606.521 65.0871 604.873 68.9913 602.113 72.0553C594.219 80.6359 587.065 89.8696 580.73 99.6574C600.899 91.7025 623.026 86.9578 646.829 85.5363C650.955 85.2777 655.049 86.42 658.445 88.7782C661.841 91.1364 664.341 94.5721 665.54 98.5286C666.739 102.485 666.566 106.731 665.05 110.577C663.533 114.423 660.762 117.644 657.186 119.719C634.456 132.804 604.458 155.558 586.973 190.87C632.357 228.254 660.274 291.196 660.274 357.198C660.274 407.686 643.834 444.89 611.407 467.804C584.572 486.773 547.342 495.99 497.598 495.99C447.855 495.99 410.625 486.773 383.799 467.813C351.372 444.899 334.932 407.695 334.932 357.207C334.932 291.205 362.849 228.235 408.233 190.88C390.739 155.568 360.75 132.814 338.02 119.728ZM353.763 357.207C353.763 401.839 367.143 432.991 394.665 452.44C418.205 469.075 451.875 477.161 497.598 477.161C543.321 477.161 576.992 469.075 600.531 452.44C628.054 432.991 641.433 401.839 641.433 357.207C641.433 294.218 614.005 234.514 569.827 201.32L569.648 201.198C547.69 184.751 522.776 176.053 497.598 176.053C472.421 176.053 447.506 184.751 425.549 201.198L425.408 201.292C381.21 234.476 353.763 294.199 353.763 357.207Z" fill="black"/>
<path d="M338.02 119.728C334.444 117.654 331.673 114.432 330.156 110.586C328.64 106.74 328.467 102.495 329.666 98.5381C330.865 94.5815 333.365 91.1458 336.761 88.7876C340.157 86.4294 344.251 85.2871 348.377 85.5457C372.19 86.9955 394.317 91.7402 414.485 99.6668C408.144 89.875 400.985 80.6381 393.083 72.0553C390.305 68.9949 388.642 65.0863 388.362 60.9626C388.083 56.8389 389.205 52.7418 391.546 49.335C393.886 45.9283 397.309 43.4114 401.259 42.1922C405.208 40.973 409.454 41.1229 413.308 42.6176C432.722 49.9833 450.985 60.083 467.543 72.6108L479.784 29.3061C480.862 25.4199 483.192 21.9977 486.413 19.5692C489.633 17.1406 493.565 15.8413 497.598 15.8722C501.635 15.8456 505.568 17.1513 508.787 19.587C512.007 22.0226 514.332 25.4521 515.403 29.3437L527.644 72.6484C544.202 60.1206 562.465 50.021 581.879 42.6552C585.727 41.1725 589.963 41.0291 593.903 42.2483C597.843 43.4674 601.257 45.978 603.595 49.375C605.933 52.772 607.059 56.8574 606.79 60.9722C606.521 65.0871 604.873 68.9913 602.113 72.0553C594.219 80.6359 587.065 89.8696 580.73 99.6574C600.899 91.7025 623.026 86.9578 646.829 85.5363C650.955 85.2777 655.049 86.42 658.445 88.7782C661.841 91.1364 664.341 94.5721 665.54 98.5286C666.739 102.485 666.566 106.731 665.05 110.577C663.533 114.423 660.762 117.644 657.186 119.719C634.456 132.804 604.458 155.558 586.973 190.87C632.357 228.254 660.274 291.196 660.274 357.198C660.274 407.686 643.834 444.89 611.407 467.804C584.572 486.773 547.342 495.99 497.598 495.99C447.855 495.99 410.625 486.773 383.799 467.813C351.372 444.899 334.932 407.695 334.932 357.207C334.932 291.205 362.849 228.235 408.233 190.88C390.739 155.568 360.75 132.814 338.02 119.728ZM353.763 357.207C353.763 401.839 367.143 432.991 394.665 452.44C418.205 469.075 451.875 477.161 497.598 477.161C543.321 477.161 576.992 469.075 600.531 452.44C628.054 432.991 641.433 401.839 641.433 357.207C641.433 294.218 614.005 234.514 569.827 201.32L569.648 201.198C547.69 184.751 522.776 176.053 497.598 176.053C472.421 176.053 447.506 184.751 425.549 201.198L425.408 201.292C381.21 234.476 353.763 294.199 353.763 357.207Z" fill="url(#paint0_linear)"/>
<path d="M568.283 358.656C558.252 358.656 550.12 350.526 550.12 340.497C550.12 330.468 558.252 322.337 568.283 322.337C578.314 322.337 586.445 330.468 586.445 340.497C586.445 350.526 578.314 358.656 568.283 358.656Z" fill="black"/>
<path d="M426.915 358.656C416.884 358.656 408.752 350.526 408.752 340.497C408.752 330.468 416.884 322.337 426.915 322.337C436.945 322.337 445.077 330.468 445.077 340.497C445.077 350.526 436.945 358.656 426.915 358.656Z" fill="black"/>
<path d="M497.165 447.63C529.744 447.63 554.093 421.901 554.093 398.893C554.093 392.124 552.012 386.862 547.916 383.266C540.572 376.807 529.979 378.182 517.71 379.773C510.906 380.791 504.044 381.366 497.165 381.496C490.287 381.366 483.424 380.791 476.62 379.773C471.734 379.028 466.806 378.584 461.865 378.446C455.849 378.446 450.566 379.585 446.414 383.266C442.262 386.946 440.237 392.124 440.237 398.893C440.237 421.901 464.587 447.63 497.165 447.63Z" fill="black"/>
<ellipse rx="34.137" ry="14.8339" transform="matrix(-1 0 0 1 496.253 418.294)" fill="#FF0000"/>
</g>
<rect x="303" y="475" width="390" height="360" fill="#FF0000"/>
<path d="M363.82 532.669H393.703C405.344 532.669 413.977 534.408 419.602 537.884C425.266 541.322 428.098 546.693 428.098 553.997C428.098 558.802 426.867 562.904 424.406 566.302C421.945 569.701 418.703 571.888 414.68 572.865V573.451C419.992 574.857 423.84 577.201 426.223 580.482C428.605 583.763 429.797 588.021 429.797 593.255C429.797 601.029 426.867 607.161 421.008 611.654C415.188 616.107 407.238 618.333 397.16 618.333H363.82V532.669ZM386.965 565.54H393.938C397.258 565.54 399.816 564.857 401.613 563.49C403.449 562.122 404.367 560.091 404.367 557.396C404.367 552.591 400.734 550.189 393.469 550.189H386.965V565.54ZM386.965 582.474V600.462H395.109C402.336 600.462 405.949 597.415 405.949 591.322C405.949 588.47 404.973 586.283 403.02 584.759C401.105 583.236 398.313 582.474 394.641 582.474H386.965ZM495.539 618.333H444.68V532.669H495.539V551.243H467.824V564.72H493.488V583.294H467.824V599.466H495.539V618.333ZM566.555 592.318C566.555 597.63 565.207 602.357 562.512 606.497C559.816 610.599 555.93 613.802 550.852 616.107C545.773 618.372 539.816 619.505 532.981 619.505C527.277 619.505 522.492 619.115 518.625 618.333C514.758 617.513 510.734 616.107 506.555 614.115V593.49C510.969 595.755 515.559 597.533 520.324 598.822C525.09 600.072 529.465 600.697 533.449 600.697C536.887 600.697 539.406 600.111 541.008 598.939C542.609 597.728 543.41 596.185 543.41 594.31C543.41 593.138 543.078 592.122 542.414 591.263C541.789 590.365 540.754 589.466 539.309 588.568C537.902 587.669 534.113 585.833 527.941 583.06C522.356 580.521 518.156 578.06 515.344 575.677C512.57 573.294 510.5 570.56 509.133 567.474C507.805 564.388 507.141 560.736 507.141 556.517C507.141 548.626 510.012 542.474 515.754 538.06C521.496 533.646 529.387 531.439 539.426 531.439C548.293 531.439 557.336 533.49 566.555 537.591L559.465 555.462C551.457 551.79 544.543 549.954 538.723 549.954C535.715 549.954 533.527 550.482 532.16 551.536C530.793 552.591 530.109 553.9 530.109 555.462C530.109 557.142 530.969 558.646 532.688 559.974C534.445 561.302 539.172 563.724 546.867 567.24C554.25 570.56 559.367 574.134 562.219 577.962C565.109 581.751 566.555 586.536 566.555 592.318ZM617.59 618.333H594.445V551.595H573.527V532.669H638.449V551.595H617.59V618.333ZM404.039 709.333H382.052V645.932H362.18V627.952H423.855V645.932H404.039V709.333ZM505.236 709.333H483.138V676.158H457.588V709.333H435.489V627.952H457.588V658.122H483.138V627.952H505.236V709.333ZM572.813 709.333L568.805 694.081H542.364L538.245 709.333H514.087L540.639 627.618H569.974L596.859 709.333H572.813ZM564.24 676.046L560.733 662.687C559.917 659.718 558.915 655.877 557.728 651.164C556.577 646.452 555.816 643.075 555.445 641.034C555.111 642.926 554.443 646.043 553.441 650.385C552.477 654.727 550.306 663.281 546.929 676.046H564.24ZM605.71 709.333V627.952H627.809V709.333H605.71ZM378.596 774.333H366.533V716.51H399.677V726.556H378.596V741.467H398.213V751.473H378.596V774.333ZM423.249 742.179H427.204C431.08 742.179 433.941 741.533 435.787 740.241C437.632 738.949 438.555 736.918 438.555 734.15C438.555 731.408 437.606 729.456 435.708 728.296C433.835 727.136 430.922 726.556 426.967 726.556H423.249V742.179ZM423.249 752.145V774.333H410.988V716.51H427.837C435.694 716.51 441.508 717.947 445.279 720.821C449.049 723.669 450.935 728.006 450.935 733.833C450.935 737.235 449.999 740.267 448.126 742.93C446.254 745.567 443.605 747.637 440.177 749.139C448.878 762.139 454.547 770.536 457.184 774.333H443.578L429.775 752.145H423.249ZM511.526 716.51V753.925C511.526 758.197 510.564 761.941 508.639 765.158C506.741 768.374 503.985 770.84 500.373 772.554C496.761 774.267 492.489 775.124 487.559 775.124C480.123 775.124 474.349 773.226 470.235 769.429C466.122 765.606 464.065 760.385 464.065 753.767V716.51H476.287V751.908C476.287 756.364 477.183 759.634 478.976 761.717C480.769 763.8 483.735 764.841 487.875 764.841C491.883 764.841 494.783 763.8 496.576 761.717C498.396 759.607 499.305 756.311 499.305 751.829V716.51H511.526ZM525.686 774.333V716.51H537.946V774.333H525.686ZM574.808 774.333H562.547V726.714H546.845V716.51H590.509V726.714H574.808V774.333ZM633.541 758.276C633.541 763.496 631.655 767.61 627.885 770.616C624.141 773.621 618.92 775.124 612.223 775.124C606.053 775.124 600.595 773.964 595.849 771.644V760.253C599.751 761.993 603.047 763.22 605.736 763.931C608.452 764.643 610.931 764.999 613.172 764.999C615.861 764.999 617.918 764.485 619.342 763.457C620.792 762.429 621.517 760.899 621.517 758.869C621.517 757.735 621.201 756.733 620.568 755.863C619.935 754.967 618.999 754.11 617.76 753.292C616.547 752.475 614.055 751.17 610.285 749.377C606.751 747.716 604.102 746.12 602.335 744.591C600.568 743.062 599.158 741.282 598.103 739.252C597.048 737.222 596.521 734.848 596.521 732.133C596.521 727.017 598.248 722.996 601.702 720.07C605.183 717.143 609.981 715.68 616.099 715.68C619.105 715.68 621.965 716.035 624.681 716.747C627.423 717.459 630.284 718.461 633.264 719.753L629.309 729.285C626.224 728.019 623.666 727.136 621.636 726.635C619.632 726.134 617.654 725.884 615.703 725.884C613.383 725.884 611.603 726.424 610.364 727.505C609.125 728.586 608.505 729.997 608.505 731.737C608.505 732.818 608.755 733.767 609.256 734.585C609.757 735.376 610.548 736.154 611.629 736.918C612.737 737.657 615.334 739.001 619.421 740.952C624.826 743.536 628.531 746.134 630.535 748.744C632.539 751.328 633.541 754.505 633.541 758.276Z" fill="white"/>
</g>
<defs>
<linearGradient id="paint0_linear" x1="497.603" y1="15.8717" x2="481.523" y2="321.431" gradientUnits="userSpaceOnUse">
<stop stop-color="#009806"/>
<stop offset="1" stop-color="white" stop-opacity="0"/>
</linearGradient>
<clipPath id="clip0">
<path d="M0 0H995V835H0V0Z" fill="white"/>
</clipPath>
<clipPath id="clip1">
<path d="M101 0H895V712H101V0Z" fill="white"/>
</clipPath>
</defs>
</svg>
