<svg width="600" height="600" viewBox="0 0 600 600" fill="none" xmlns="http://www.w3.org/2000/svg">
<rect width="600" height="600" fill="#FF0000"/>
<g clip-path="url(#clip0)">
<rect x="105" y="123" width="390" height="360" fill="#FF0000"/>
<path d="M165.82 180.669H195.703C207.344 180.669 215.977 182.408 221.602 185.884C227.266 189.322 230.098 194.693 230.098 201.997C230.098 206.802 228.867 210.904 226.406 214.302C223.945 217.701 220.703 219.888 216.68 220.865V221.451C221.992 222.857 225.84 225.201 228.223 228.482C230.606 231.763 231.797 236.021 231.797 241.255C231.797 249.029 228.867 255.161 223.008 259.654C217.188 264.107 209.238 266.333 199.16 266.333H165.82V180.669ZM188.965 213.54H195.938C199.258 213.54 201.817 212.857 203.613 211.49C205.449 210.122 206.367 208.091 206.367 205.396C206.367 200.591 202.735 198.189 195.469 198.189H188.965V213.54ZM188.965 230.474V248.462H197.11C204.336 248.462 207.949 245.415 207.949 239.322C207.949 236.47 206.973 234.283 205.02 232.759C203.106 231.236 200.313 230.474 196.641 230.474H188.965ZM297.539 266.333H246.68V180.669H297.539V199.243H269.824V212.72H295.488V231.294H269.824V247.466H297.539V266.333ZM368.555 240.318C368.555 245.63 367.207 250.357 364.512 254.497C361.817 258.599 357.93 261.802 352.852 264.107C347.774 266.372 341.817 267.505 334.981 267.505C329.277 267.505 324.492 267.115 320.625 266.333C316.758 265.513 312.735 264.107 308.555 262.115V241.49C312.969 243.755 317.559 245.533 322.324 246.822C327.09 248.072 331.465 248.697 335.449 248.697C338.887 248.697 341.406 248.111 343.008 246.939C344.61 245.728 345.41 244.185 345.41 242.31C345.41 241.138 345.078 240.122 344.414 239.263C343.789 238.365 342.754 237.466 341.309 236.568C339.902 235.669 336.113 233.833 329.942 231.06C324.356 228.521 320.156 226.06 317.344 223.677C314.57 221.294 312.5 218.56 311.133 215.474C309.805 212.388 309.141 208.736 309.141 204.517C309.141 196.626 312.012 190.474 317.754 186.06C323.496 181.646 331.387 179.439 341.426 179.439C350.293 179.439 359.336 181.49 368.555 185.591L361.465 203.462C353.457 199.79 346.543 197.954 340.723 197.954C337.715 197.954 335.527 198.482 334.16 199.536C332.793 200.591 332.11 201.9 332.11 203.462C332.11 205.142 332.969 206.646 334.688 207.974C336.445 209.302 341.172 211.724 348.867 215.24C356.25 218.56 361.367 222.134 364.219 225.962C367.11 229.751 368.555 234.536 368.555 240.318ZM419.59 266.333H396.445V199.595H375.528V180.669H440.449V199.595H419.59V266.333ZM206.039 357.333H184.052V293.932H164.18V275.952H225.856V293.932H206.039V357.333ZM307.236 357.333H285.138V324.158H259.588V357.333H237.489V275.952H259.588V306.122H285.138V275.952H307.236V357.333ZM374.813 357.333L370.805 342.081H344.364L340.245 357.333H316.087L342.639 275.618H371.974L398.86 357.333H374.813ZM366.24 324.046L362.734 310.687C361.917 307.718 360.915 303.877 359.728 299.164C358.577 294.452 357.817 291.075 357.445 289.034C357.111 290.926 356.444 294.043 355.442 298.385C354.477 302.727 352.306 311.281 348.929 324.046H366.24ZM407.71 357.333V275.952H429.809V357.333H407.71ZM180.596 422.333H168.533V364.51H201.677V374.556H180.596V389.467H200.214V399.473H180.596V422.333ZM225.249 390.179H229.204C233.08 390.179 235.941 389.533 237.787 388.241C239.632 386.949 240.555 384.918 240.555 382.15C240.555 379.408 239.606 377.456 237.708 376.296C235.836 375.136 232.922 374.556 228.967 374.556H225.249V390.179ZM225.249 400.145V422.333H212.988V364.51H229.837C237.694 364.51 243.508 365.947 247.279 368.821C251.049 371.669 252.935 376.006 252.935 381.833C252.935 385.235 251.999 388.267 250.127 390.93C248.255 393.567 245.605 395.637 242.177 397.139C250.878 410.139 256.547 418.536 259.184 422.333H245.578L231.775 400.145H225.249ZM313.527 364.51V401.925C313.527 406.197 312.564 409.941 310.639 413.158C308.741 416.374 305.986 418.84 302.373 420.554C298.761 422.267 294.489 423.124 289.559 423.124C282.123 423.124 276.349 421.226 272.235 417.429C268.122 413.606 266.066 408.385 266.066 401.767V364.51H278.287V399.908C278.287 404.364 279.183 407.634 280.976 409.717C282.769 411.8 285.735 412.841 289.875 412.841C293.883 412.841 296.783 411.8 298.576 409.717C300.396 407.607 301.305 404.311 301.305 399.829V364.51H313.527ZM327.686 422.333V364.51H339.946V422.333H327.686ZM376.808 422.333H364.547V374.714H348.845V364.51H392.509V374.714H376.808V422.333ZM435.541 406.276C435.541 411.496 433.655 415.61 429.885 418.616C426.141 421.621 420.92 423.124 414.223 423.124C408.053 423.124 402.595 421.964 397.849 419.644V408.253C401.751 409.993 405.047 411.22 407.736 411.931C410.452 412.643 412.931 412.999 415.172 412.999C417.861 412.999 419.918 412.485 421.342 411.457C422.792 410.429 423.517 408.899 423.517 406.869C423.517 405.735 423.201 404.733 422.568 403.863C421.935 402.967 420.999 402.11 419.76 401.292C418.547 400.475 416.055 399.17 412.285 397.377C408.752 395.716 406.102 394.12 404.335 392.591C402.569 391.062 401.158 389.282 400.103 387.252C399.048 385.222 398.521 382.848 398.521 380.133C398.521 375.017 400.248 370.996 403.702 368.07C407.183 365.143 411.982 363.68 418.099 363.68C421.105 363.68 423.965 364.035 426.681 364.747C429.423 365.459 432.284 366.461 435.264 367.753L431.309 377.285C428.224 376.019 425.666 375.136 423.636 374.635C421.632 374.134 419.654 373.884 417.703 373.884C415.383 373.884 413.603 374.424 412.364 375.505C411.125 376.586 410.505 377.997 410.505 379.737C410.505 380.818 410.756 381.767 411.257 382.585C411.757 383.376 412.548 384.154 413.63 384.918C414.737 385.657 417.334 387.001 421.421 388.952C426.826 391.536 430.531 394.134 432.535 396.744C434.539 399.328 435.541 402.505 435.541 406.276Z" fill="white"/>
</g>
<defs>
<clipPath id="clip0">
<rect width="390" height="360" fill="white" transform="translate(105 123)"/>
</clipPath>
</defs>
</svg>
