<svg width="235" height="365" viewBox="0 0 235 365" fill="none" xmlns="http://www.w3.org/2000/svg">
<path fill-rule="evenodd" clip-rule="evenodd" d="M155.489 101.271C154.05 100.885 152.775 99.909 152.065 98.4659C150.74 95.8056 151.828 92.5777 154.487 91.2574C175.023 81.0501 185.112 53.46 185.208 53.185C186.209 50.3849 189.337 48.9564 192.083 49.9314C194.879 50.9254 196.337 54.0003 195.343 56.7966C194.879 58.0922 183.744 88.7322 159.271 100.892C158.05 101.5 156.71 101.598 155.489 101.271Z" fill="black"/>
<path fill-rule="evenodd" clip-rule="evenodd" d="M211.205 129.912C211.205 93.9973 182.093 64.8818 146.183 64.8818C129.677 64.8818 114.661 71.0782 103.194 81.2119H103.189C101.361 82.8309 99.6287 84.5522 97.9884 86.3648C66.6871 115.308 78.1158 158.543 62.7341 173.846C44.0233 192.462 46.18 221.54 77.4274 226.693C147.124 238.193 188.654 179.214 188.654 179.214C199.287 167.633 211.205 146.866 211.205 129.912Z" fill="#FAD841"/>
<path fill-rule="evenodd" clip-rule="evenodd" d="M205.795 103.976C205.795 104.191 205.828 104.395 205.828 104.61C205.828 124.383 191.925 148.604 179.528 162.104C179.528 162.104 134.749 225.628 59.083 218.641C63.4071 222.498 69.4576 225.381 77.4281 226.693C147.124 238.188 188.655 179.214 188.655 179.214C199.282 167.634 211.206 146.866 211.206 129.912C211.206 120.688 209.259 111.925 205.795 103.976Z" fill="#FAAC28"/>
<path fill-rule="evenodd" clip-rule="evenodd" d="M146.183 70.2596C131.688 70.2596 117.689 75.5792 106.755 85.2396C105.109 86.6972 103.501 88.284 101.979 89.9729C84.5428 106.12 81.1976 126.608 78.2395 144.675C76.0076 158.343 74.0768 170.15 66.5258 177.658C57.9906 186.157 54.3065 197.382 57.1408 206.247C59.6793 214.18 67.1927 219.554 78.3041 221.388C143.94 232.226 183.862 176.679 184.26 176.115C184.389 175.926 184.535 175.743 184.696 175.571C195.194 164.136 205.827 144.778 205.827 129.911C205.827 97.0192 179.07 70.2596 146.183 70.2596ZM95.5951 233.582C89.5015 233.582 83.1552 233.087 76.5562 231.995C61.2605 229.478 50.7246 221.496 46.9007 209.533C42.7756 196.656 47.3955 181.526 58.9425 170.031C64.0195 164.975 65.6922 154.766 67.6229 142.938C70.6993 124.139 74.5232 100.736 94.3366 82.4157C95.7887 80.7752 97.6872 78.8979 99.6287 77.1821C112.531 65.779 129.064 59.502 146.183 59.502C185.003 59.502 216.583 91.0863 216.583 129.911C216.583 148.231 204.321 169.994 192.839 182.607C189.472 187.265 154.503 233.576 95.5951 233.582Z" fill="black"/>
<path d="M113.839 134.59C118.386 134.59 122.073 130.904 122.073 126.357C122.073 121.81 118.386 118.125 113.839 118.125C109.291 118.125 105.604 121.81 105.604 126.357C105.604 130.904 109.291 134.59 113.839 134.59Z" fill="black"/>
<path d="M177.929 134.59C182.476 134.59 186.163 130.904 186.163 126.357C186.163 121.81 182.476 118.125 177.929 118.125C173.381 118.125 169.694 121.81 169.694 126.357C169.694 130.904 173.381 134.59 177.929 134.59Z" fill="black"/>
<path d="M146.08 174.925C131.311 174.925 120.272 163.261 120.272 152.83C120.272 149.762 121.215 147.376 123.072 145.746C126.402 142.818 131.204 143.441 136.766 144.162C139.851 144.624 142.962 144.885 146.08 144.943C149.199 144.885 152.31 144.624 155.395 144.162C157.61 143.825 159.844 143.624 162.084 143.561C164.811 143.561 167.206 144.077 169.088 145.746C170.971 147.415 171.889 149.762 171.889 152.83C171.889 163.261 160.85 174.925 146.08 174.925Z" fill="black"/>
<ellipse rx="15.5806" ry="6.8285" transform="matrix(-1 0 0 1 145.944 161.656)" fill="#FF0000"/>
<rect x="30" y="205" width="175" height="160" fill="#FF0000"/>
<path d="M58.6102 232.218H71.7255C76.8344 232.218 80.6233 232.981 83.092 234.507C85.5779 236.015 86.8209 238.373 86.8209 241.579C86.8209 243.687 86.2808 245.487 85.2007 246.979C84.1207 248.471 82.6977 249.431 80.9319 249.859V250.116C83.2635 250.734 84.9522 251.762 85.9979 253.202C87.0437 254.642 87.5666 256.511 87.5666 258.808C87.5666 262.22 86.2808 264.912 83.7092 266.883C81.1547 268.838 77.6659 269.815 73.2427 269.815H58.6102V232.218ZM68.7681 246.645H71.8283C73.2856 246.645 74.4085 246.345 75.1972 245.745C76.0029 245.145 76.4058 244.253 76.4058 243.07C76.4058 240.961 74.8114 239.907 71.6226 239.907H68.7681V246.645ZM68.7681 254.077V261.972H72.3427C75.5143 261.972 77.1002 260.634 77.1002 257.96C77.1002 256.708 76.6716 255.748 75.8143 255.08C74.9743 254.411 73.7485 254.077 72.1369 254.077H68.7681ZM116.42 269.815H94.0985V232.218H116.42V240.37H104.256V246.285H115.52V254.437H104.256V261.534H116.42V269.815ZM147.588 258.397C147.588 260.729 146.997 262.803 145.814 264.62C144.631 266.42 142.925 267.826 140.696 268.838C138.467 269.832 135.853 270.329 132.853 270.329C130.35 270.329 128.25 270.158 126.552 269.815C124.855 269.455 123.089 268.838 121.255 267.963V258.911C123.192 259.906 125.206 260.686 127.298 261.251C129.39 261.8 131.31 262.074 133.058 262.074C134.567 262.074 135.673 261.817 136.376 261.303C137.079 260.771 137.43 260.094 137.43 259.271C137.43 258.757 137.285 258.311 136.993 257.934C136.719 257.54 136.264 257.145 135.63 256.751C135.013 256.357 133.35 255.551 130.641 254.334C128.19 253.219 126.347 252.139 125.112 251.094C123.895 250.048 122.986 248.848 122.386 247.493C121.803 246.139 121.512 244.536 121.512 242.684C121.512 239.221 122.772 236.521 125.292 234.584C127.812 232.647 131.276 231.678 135.682 231.678C139.573 231.678 143.542 232.578 147.588 234.378L144.476 242.222C140.962 240.61 137.927 239.804 135.373 239.804C134.053 239.804 133.093 240.036 132.493 240.499C131.893 240.961 131.593 241.536 131.593 242.222C131.593 242.959 131.97 243.619 132.724 244.202C133.496 244.785 135.57 245.847 138.947 247.39C142.188 248.848 144.434 250.416 145.685 252.097C146.954 253.759 147.588 255.86 147.588 258.397ZM169.987 269.815H159.829V240.524H150.648V232.218H179.142V240.524H169.987V269.815ZM76.2618 309.815H66.6118V281.989H57.8902V274.098H84.959V281.989H76.2618V309.815ZM120.676 309.815H110.977V295.254H99.7638V309.815H90.0649V274.098H99.7638V287.339H110.977V274.098H120.676V309.815ZM150.335 309.815L148.576 303.121H136.971L135.163 309.815H124.561L136.214 273.951H149.089L160.889 309.815H150.335ZM146.572 295.206L145.033 289.342C144.675 288.039 144.235 286.354 143.714 284.285C143.209 282.217 142.875 280.735 142.712 279.839C142.566 280.67 142.273 282.038 141.833 283.943C141.409 285.849 140.457 289.603 138.974 295.206H146.572ZM164.773 309.815V274.098H174.472V309.815H164.773ZM65.0952 337.815H59.8009V312.437H74.3472V316.846H65.0952V323.39H73.705V327.782H65.0952V337.815ZM84.6928 323.703H86.4287C88.1298 323.703 89.3854 323.419 90.1955 322.852C91.0055 322.285 91.4105 321.394 91.4105 320.179C91.4105 318.975 90.9939 318.119 90.1607 317.61C89.3391 317.101 88.0604 316.846 86.3245 316.846H84.6928V323.703ZM84.6928 328.077V337.815H79.3117V312.437H86.7064C90.155 312.437 92.7066 313.068 94.3615 314.329C96.0163 315.579 96.8437 317.482 96.8437 320.04C96.8437 321.533 96.4329 322.864 95.6113 324.032C94.7896 325.19 93.6266 326.098 92.1222 326.758C95.9411 332.463 98.4291 336.149 99.5864 337.815H93.6151L87.557 328.077H84.6928ZM123.437 312.437V328.858C123.437 330.733 123.014 332.376 122.17 333.788C121.336 335.2 120.127 336.282 118.542 337.034C116.956 337.786 115.082 338.162 112.918 338.162C109.654 338.162 107.12 337.329 105.315 335.662C103.509 333.985 102.607 331.693 102.607 328.789V312.437H107.97V327.973C107.97 329.928 108.364 331.363 109.151 332.278C109.938 333.192 111.24 333.649 113.056 333.649C114.815 333.649 116.088 333.192 116.875 332.278C117.674 331.352 118.073 329.905 118.073 327.938V312.437H123.437ZM129.651 337.815V312.437H135.032V337.815H129.651ZM151.21 337.815H145.829V316.915H138.938V312.437H158.102V316.915H151.21V337.815ZM176.987 330.767C176.987 333.059 176.16 334.864 174.505 336.183C172.862 337.502 170.571 338.162 167.631 338.162C164.923 338.162 162.528 337.653 160.445 336.635V331.635C162.158 332.399 163.604 332.937 164.785 333.25C165.976 333.562 167.064 333.718 168.048 333.718C169.228 333.718 170.131 333.493 170.756 333.041C171.392 332.59 171.711 331.919 171.711 331.028C171.711 330.53 171.572 330.09 171.294 329.709C171.016 329.315 170.605 328.939 170.061 328.58C169.529 328.222 168.436 327.649 166.781 326.862C165.23 326.133 164.067 325.433 163.292 324.761C162.516 324.09 161.897 323.309 161.434 322.418C160.971 321.527 160.74 320.485 160.74 319.294C160.74 317.049 161.498 315.284 163.014 313.999C164.541 312.715 166.648 312.072 169.332 312.072C170.652 312.072 171.907 312.229 173.099 312.541C174.303 312.854 175.558 313.293 176.866 313.86L175.13 318.044C173.776 317.488 172.654 317.101 171.763 316.881C170.883 316.661 170.015 316.551 169.159 316.551C168.14 316.551 167.359 316.788 166.815 317.263C166.272 317.737 166 318.356 166 319.12C166 319.594 166.11 320.011 166.329 320.37C166.549 320.717 166.896 321.058 167.371 321.394C167.857 321.718 168.997 322.308 170.791 323.164C173.163 324.299 174.789 325.438 175.668 326.584C176.548 327.718 176.987 329.113 176.987 330.767Z" fill="white"/>
</svg>
