<svg width="235" height="365" viewBox="0 0 235 365" fill="none" xmlns="http://www.w3.org/2000/svg">
<path fill-rule="evenodd" clip-rule="evenodd" d="M46.1275 100.518C47.474 100.518 48.8156 99.9625 49.7732 98.8661C51.5523 96.8488 51.3579 93.7692 49.3454 91.9907C33.8049 78.2447 31.4522 51.7369 31.4327 51.4737C31.214 48.7889 28.8175 46.8057 26.1926 47.0152C23.5191 47.2296 21.5261 49.5782 21.74 52.2583C21.842 53.5008 24.394 82.9225 42.9144 99.2998C43.8379 100.118 44.9851 100.518 46.1275 100.518Z" fill="black"/>
<path fill-rule="evenodd" clip-rule="evenodd" d="M77.1626 225.058C119.778 225.058 154.325 190.438 154.325 147.733C154.325 105.027 119.778 70.4072 77.1626 70.4072C34.5469 70.4072 0 105.027 0 147.733C0 190.438 34.5469 225.058 77.1626 225.058ZM77.1626 216.552C115.091 216.552 145.837 185.741 145.837 147.733C145.837 109.725 115.091 78.913 77.1626 78.913C39.2346 78.913 8.48789 109.725 8.48789 147.733C8.48789 185.741 39.2346 216.552 77.1626 216.552Z" fill="black"/>
<ellipse cx="182.297" cy="173.83" rx="52.2777" ry="52.388" fill="black"/>
<ellipse cx="182.297" cy="173.83" rx="46.4905" ry="46.5886" fill="#C14C4A"/>
<ellipse cx="182.297" cy="173.83" rx="41.0891" ry="41.1758" fill="white"/>
<ellipse cx="182.297" cy="173.83" rx="34.5303" ry="34.6032" fill="#DDA823"/>
<path d="M196.405 170.425C195.728 170.425 195.048 170.159 194.564 169.691C194.075 169.223 193.798 168.572 193.798 167.919C193.798 167.268 194.075 166.617 194.564 166.15C195.553 165.214 197.271 165.214 198.244 166.15C198.748 166.617 199.026 167.268 199.026 167.919C199.026 168.572 198.748 169.223 198.244 169.691C197.76 170.159 197.1 170.425 196.405 170.425Z" fill="#7C4810"/>
<path d="M187.786 162.043C187.106 162.043 186.424 161.762 185.936 161.27C185.45 160.778 185.172 160.093 185.172 159.405C185.172 158.704 185.45 158.016 185.936 157.542C186.896 156.558 188.673 156.558 189.631 157.542C190.119 158.016 190.4 158.704 190.4 159.405C190.4 160.093 190.119 160.778 189.631 161.27C189.143 161.762 188.465 162.043 187.786 162.043Z" fill="#7C4810"/>
<path d="M175.762 162.043C175.082 162.043 174.402 161.762 173.912 161.27C173.426 160.778 173.148 160.093 173.148 159.405C173.148 158.704 173.426 158.016 173.912 157.542C174.872 156.558 176.633 156.558 177.607 157.542C178.095 158.016 178.376 158.704 178.376 159.405C178.376 160.093 178.095 160.778 177.607 161.27C177.119 161.762 176.442 162.043 175.762 162.043Z" fill="#7C4810"/>
<path d="M167.136 170.687C166.438 170.687 165.759 170.404 165.273 169.912C164.801 169.422 164.522 168.753 164.522 168.05C164.522 167.364 164.801 166.677 165.273 166.185C166.265 165.203 167.989 165.203 168.966 166.185C169.472 166.695 169.75 167.364 169.75 168.05C169.75 168.735 169.472 169.422 168.984 169.912C168.493 170.404 167.814 170.687 167.136 170.687Z" fill="#7C4810"/>
<path d="M167.136 182.736C166.438 182.736 165.759 182.453 165.273 181.961C164.801 181.468 164.522 180.798 164.522 180.096C164.522 179.41 164.801 178.722 165.289 178.23C166.231 177.263 167.992 177.244 168.984 178.23C169.472 178.722 169.75 179.41 169.75 180.096C169.75 180.798 169.472 181.468 168.984 181.961C168.496 182.453 167.814 182.736 167.136 182.736Z" fill="#7C4810"/>
<path d="M175.762 191.38C175.082 191.38 174.402 191.097 173.912 190.605C173.426 190.113 173.148 189.444 173.148 188.743C173.148 188.058 173.426 187.371 173.912 186.879C174.891 185.895 176.633 185.895 177.607 186.879C178.095 187.371 178.376 188.058 178.376 188.743C178.376 189.444 178.095 190.113 177.607 190.605C177.119 191.097 176.442 191.38 175.762 191.38Z" fill="#7C4810"/>
<path d="M187.786 191.38C187.106 191.38 186.424 191.097 185.936 190.604C185.45 190.112 185.172 189.442 185.172 188.74C185.172 188.054 185.45 187.366 185.936 186.873C186.896 185.906 188.655 185.888 189.631 186.873C190.119 187.366 190.4 188.054 190.4 188.74C190.4 189.426 190.119 190.112 189.631 190.604C189.143 191.097 188.465 191.38 187.786 191.38Z" fill="#7C4810"/>
<path d="M196.409 182.736C195.714 182.736 195.032 182.453 194.548 181.961C194.076 181.468 193.798 180.798 193.798 180.096C193.798 179.41 194.076 178.722 194.548 178.23C195.524 177.244 197.299 177.263 198.259 178.23C198.729 178.722 199.026 179.41 199.026 180.096C199.026 180.798 198.747 181.468 198.241 181.961C197.771 182.453 197.091 182.736 196.409 182.736Z" fill="#7C4810"/>
<path d="M181.646 151.827C180.998 151.827 180.352 151.565 179.888 151.072C179.425 150.579 179.16 149.892 179.16 149.203C179.16 148.501 179.425 147.812 179.888 147.321C180.816 146.335 182.454 146.353 183.398 147.321C183.862 147.832 184.127 148.503 184.127 149.203C184.127 149.892 183.862 150.56 183.398 151.072C182.935 151.565 182.289 151.827 181.646 151.827Z" fill="#7C4810"/>
<path d="M205.959 176.711C205.294 176.711 204.646 176.428 204.182 175.954C203.717 175.442 203.469 174.774 203.469 174.072C203.469 173.386 203.717 172.699 204.182 172.204C205.113 171.237 206.772 171.221 207.72 172.204C208.17 172.699 208.436 173.367 208.436 174.072C208.436 174.777 208.17 175.445 207.72 175.938C207.238 176.428 206.607 176.711 205.959 176.711Z" fill="#7C4810"/>
<path d="M204.255 167.282C203.557 167.282 202.896 167.015 202.408 166.547C201.92 166.08 201.64 165.429 201.64 164.776C201.64 164.109 201.92 163.474 202.408 163.006C203.366 162.071 205.123 162.071 206.101 163.006C206.587 163.474 206.867 164.125 206.867 164.776C206.867 165.429 206.587 166.08 206.101 166.547C205.632 167.015 204.952 167.282 204.255 167.282Z" fill="#7C4810"/>
<path d="M190.925 154.185C190.245 154.185 189.563 153.904 189.077 153.41C188.587 152.917 188.309 152.232 188.309 151.547C188.309 150.861 188.587 150.176 189.077 149.684C190.053 148.7 191.83 148.7 192.772 149.684C193.258 150.176 193.536 150.861 193.536 151.547C193.536 152.232 193.258 152.917 192.772 153.41C192.3 153.904 191.62 154.185 190.925 154.185Z" fill="#7C4810"/>
<path d="M172.362 154.185C171.664 154.185 170.984 153.904 170.498 153.41C170.028 152.917 169.75 152.232 169.75 151.547C169.75 150.861 170.028 150.176 170.498 149.684C171.474 148.7 173.253 148.7 174.211 149.684C174.681 150.176 174.978 150.861 174.978 151.547C174.978 152.232 174.681 152.917 174.193 153.41C173.723 153.904 173.044 154.185 172.362 154.185Z" fill="#7C4810"/>
<path d="M159.164 167.543C158.503 167.543 157.855 167.265 157.409 166.77C156.945 166.277 156.681 165.609 156.681 164.901C156.681 164.217 156.945 163.547 157.409 163.038C158.319 162.068 159.992 162.052 160.919 163.038C161.383 163.547 161.647 164.217 161.647 164.901C161.647 165.609 161.383 166.277 160.919 166.77C160.457 167.265 159.812 167.543 159.164 167.543Z" fill="#7C4810"/>
<path d="M159.164 186.141C158.503 186.141 157.875 185.861 157.409 185.368C156.945 184.874 156.681 184.207 156.681 183.503C156.681 182.818 156.945 182.133 157.409 181.641C158.336 180.656 159.976 180.656 160.919 181.641C161.383 182.133 161.647 182.818 161.647 183.503C161.647 184.207 161.383 184.874 160.919 185.368C160.457 185.861 159.812 186.141 159.164 186.141Z" fill="#7C4810"/>
<path d="M172.346 199.239C171.666 199.239 170.986 198.972 170.498 198.504C170.028 198.037 169.75 197.403 169.75 196.735C169.75 196.083 170.028 195.43 170.498 194.965C171.474 194.027 173.215 194.027 174.211 194.965C174.699 195.43 174.978 196.083 174.978 196.735C174.978 197.403 174.699 198.037 174.211 198.504C173.723 198.972 173.046 199.239 172.346 199.239Z" fill="#7C4810"/>
<path d="M190.925 199.239C190.245 199.239 189.563 198.972 189.077 198.504C188.587 198.037 188.309 197.403 188.309 196.735C188.309 196.083 188.587 195.43 189.077 194.965C190.069 194.027 191.794 194.027 192.772 194.965C193.258 195.43 193.536 196.083 193.536 196.735C193.536 197.403 193.258 198.037 192.772 198.504C192.282 198.972 191.62 199.239 190.925 199.239Z" fill="#7C4810"/>
<path d="M157.726 176.711C157.031 176.711 156.369 176.428 155.879 175.955C155.391 175.444 155.112 174.758 155.112 174.075C155.112 173.392 155.391 172.704 155.863 172.209C156.837 171.227 158.595 171.227 159.574 172.209C160.062 172.704 160.34 173.371 160.34 174.075C160.34 174.779 160.062 175.465 159.574 175.938C159.088 176.428 158.408 176.711 157.726 176.711Z" fill="#7C4810"/>
<path d="M181.646 201.072C180.98 201.072 180.352 200.791 179.888 200.299C179.425 199.807 179.16 199.119 179.16 198.436C179.16 197.73 179.425 197.047 179.888 196.571C180.798 195.587 182.471 195.587 183.398 196.571C183.862 197.063 184.127 197.73 184.127 198.436C184.127 199.119 183.862 199.807 183.398 200.299C182.935 200.791 182.289 201.072 181.646 201.072Z" fill="#7C4810"/>
<path d="M199.019 194C198.339 194 197.662 193.717 197.175 193.228C196.689 192.736 196.412 192.05 196.412 191.365C196.412 190.681 196.689 189.996 197.175 189.505C198.166 188.504 199.901 188.522 200.858 189.505C201.344 189.996 201.639 190.665 201.639 191.365C201.639 192.05 201.344 192.736 200.858 193.228C200.387 193.717 199.71 194 199.019 194Z" fill="#7C4810"/>
<path d="M204.255 186.141C203.575 186.141 202.896 185.861 202.408 185.368C201.92 184.874 201.64 184.207 201.64 183.503C201.64 182.818 201.92 182.133 202.408 181.641C203.4 180.656 205.123 180.656 206.101 181.641C206.587 182.133 206.867 182.818 206.867 183.503C206.867 184.207 206.587 184.874 206.101 185.368C205.614 185.861 204.952 186.141 204.255 186.141Z" fill="#7C4810"/>
<path d="M164.785 159.947C164.087 159.947 163.408 159.664 162.936 159.174C162.448 158.679 162.17 158.011 162.17 157.307C162.17 156.602 162.448 155.935 162.936 155.442C163.878 154.473 165.654 154.455 166.629 155.442C167.117 155.935 167.398 156.602 167.398 157.307C167.398 158.011 167.117 158.679 166.629 159.174C166.144 159.664 165.48 159.947 164.785 159.947Z" fill="#7C4810"/>
<path d="M199.028 159.161C198.346 159.161 197.666 158.894 197.178 158.428C196.69 157.958 196.412 157.323 196.412 156.654C196.412 155.984 196.69 155.347 197.178 154.881C198.154 153.943 199.931 153.962 200.873 154.881C201.361 155.347 201.639 156.002 201.639 156.654C201.639 157.323 201.361 157.958 200.873 158.428C200.401 158.894 199.721 159.161 199.028 159.161Z" fill="#7C4810"/>
<path d="M164.785 193.738C164.103 193.738 163.426 193.457 162.936 192.965C162.448 192.473 162.17 191.805 162.17 191.101C162.17 190.398 162.448 189.713 162.936 189.239C163.914 188.255 165.654 188.255 166.629 189.221C167.117 189.731 167.398 190.416 167.398 191.099C167.398 191.782 167.117 192.471 166.629 192.963C166.142 193.455 165.464 193.738 164.785 193.738Z" fill="#7C4810"/>
<path d="M186.74 181.426C186.042 181.426 185.363 181.146 184.877 180.654C184.405 180.159 184.126 179.492 184.126 178.791C184.126 178.103 184.405 177.418 184.893 176.926C185.851 175.941 187.612 175.941 188.588 176.926C189.06 177.418 189.354 178.103 189.354 178.791C189.354 179.492 189.06 180.159 188.57 180.654C188.1 181.146 187.42 181.426 186.74 181.426Z" fill="#7C4810"/>
<path d="M177.069 171.735C176.371 171.735 175.691 171.466 175.205 171.001C174.733 170.533 174.455 169.882 174.455 169.229C174.455 168.578 174.733 167.927 175.205 167.459C176.2 166.524 177.94 166.524 178.916 167.459C179.407 167.927 179.683 168.578 179.683 169.229C179.683 169.882 179.407 170.533 178.916 171.001C178.428 171.466 177.767 171.735 177.069 171.735Z" fill="#7C4810"/>
<path d="M186.618 171.735C185.953 171.735 185.32 171.452 184.842 170.96C184.392 170.468 184.126 169.783 184.126 169.098C184.126 168.394 184.392 167.709 184.842 167.236C185.79 166.25 187.432 166.25 188.38 167.236C188.845 167.725 189.093 168.394 189.093 169.098C189.093 169.783 188.845 170.468 188.38 170.96C187.914 171.452 187.266 171.735 186.618 171.735Z" fill="#7C4810"/>
<path d="M177.071 181.165C176.373 181.165 175.694 180.884 175.224 180.391C174.733 179.898 174.455 179.228 174.455 178.526C174.455 177.819 174.733 177.151 175.224 176.658C176.163 175.691 177.924 175.672 178.916 176.658C179.386 177.151 179.683 177.819 179.683 178.526C179.683 179.228 179.386 179.898 178.916 180.391C178.431 180.881 177.751 181.165 177.071 181.165Z" fill="#7C4810"/>
<ellipse cx="77.1625" cy="147.733" rx="68.6747" ry="68.8197" fill="#B7757F"/>
<g style="mix-blend-mode:darken" opacity="0.2">
<path fill-rule="evenodd" clip-rule="evenodd" d="M145.319 139.232C140.943 154.305 132.472 168.997 120.057 181.438C99.3624 202.176 72.4297 211.932 47.8945 210.008C56.7732 214.205 66.6943 216.552 77.1624 216.552C115.09 216.552 145.837 185.741 145.837 147.733C145.837 144.855 145.661 142.018 145.319 139.232Z" fill="black"/>
</g>
<path d="M47.9526 136.922C52.0629 136.922 55.3949 133.583 55.3949 129.464C55.3949 125.345 52.0629 122.006 47.9526 122.006C43.8423 122.006 40.5103 125.345 40.5103 129.464C40.5103 133.583 43.8423 136.922 47.9526 136.922Z" fill="black"/>
<path d="M105.879 136.922C109.989 136.922 113.321 133.583 113.321 129.464C113.321 125.345 109.989 122.006 105.879 122.006C101.769 122.006 98.4365 125.345 98.4365 129.464C98.4365 133.583 101.769 136.922 105.879 136.922Z" fill="black"/>
<path d="M77.0933 173.462C63.7442 173.462 53.7671 162.895 53.7671 153.446C53.7671 150.666 54.6197 148.505 56.298 147.028C59.3074 144.376 63.6478 144.94 68.6749 145.594C71.4628 146.012 74.2749 146.248 77.0933 146.301C79.9118 146.248 82.7239 146.012 85.5118 145.594C87.5139 145.288 89.533 145.106 91.5575 145.049C94.0228 145.049 96.1872 145.516 97.8887 147.028C99.5901 148.54 100.42 150.666 100.42 153.446C100.42 162.895 90.4425 173.462 77.0933 173.462Z" fill="black"/>
<ellipse rx="14.0822" ry="6.18604" transform="matrix(-1 0 0 1 76.9696 161.442)" fill="#FF0000"/>
<path opacity="0.5" d="M23.7873 123.908C26.2355 116.416 34.9163 105.59 41.2859 102.05" stroke="white" stroke-width="15" stroke-linecap="round"/>
<rect x="30" y="205" width="175" height="160" fill="#FF0000"/>
<path d="M58.6102 232.218H71.7255C76.8344 232.218 80.6233 232.981 83.092 234.507C85.5779 236.015 86.8209 238.373 86.8209 241.579C86.8209 243.687 86.2808 245.487 85.2007 246.979C84.1207 248.471 82.6977 249.431 80.9319 249.859V250.116C83.2635 250.734 84.9522 251.762 85.9979 253.202C87.0437 254.642 87.5666 256.511 87.5666 258.808C87.5666 262.22 86.2808 264.912 83.7092 266.883C81.1547 268.838 77.6659 269.815 73.2427 269.815H58.6102V232.218ZM68.7681 246.645H71.8283C73.2856 246.645 74.4085 246.345 75.1972 245.745C76.0029 245.145 76.4058 244.253 76.4058 243.07C76.4058 240.961 74.8114 239.907 71.6226 239.907H68.7681V246.645ZM68.7681 254.077V261.972H72.3427C75.5143 261.972 77.1002 260.634 77.1002 257.96C77.1002 256.708 76.6716 255.748 75.8143 255.08C74.9743 254.411 73.7485 254.077 72.1369 254.077H68.7681ZM116.42 269.815H94.0985V232.218H116.42V240.37H104.256V246.285H115.52V254.437H104.256V261.534H116.42V269.815ZM147.588 258.397C147.588 260.729 146.997 262.803 145.814 264.62C144.631 266.42 142.925 267.826 140.696 268.838C138.467 269.832 135.853 270.329 132.853 270.329C130.35 270.329 128.25 270.158 126.552 269.815C124.855 269.455 123.089 268.838 121.255 267.963V258.911C123.192 259.906 125.206 260.686 127.298 261.251C129.39 261.8 131.31 262.074 133.058 262.074C134.567 262.074 135.673 261.817 136.376 261.303C137.079 260.771 137.43 260.094 137.43 259.271C137.43 258.757 137.285 258.311 136.993 257.934C136.719 257.54 136.264 257.145 135.63 256.751C135.013 256.357 133.35 255.551 130.641 254.334C128.19 253.219 126.347 252.139 125.112 251.094C123.895 250.048 122.986 248.848 122.386 247.493C121.803 246.139 121.512 244.536 121.512 242.684C121.512 239.221 122.772 236.521 125.292 234.584C127.812 232.647 131.276 231.678 135.682 231.678C139.573 231.678 143.542 232.578 147.588 234.378L144.476 242.222C140.962 240.61 137.927 239.804 135.373 239.804C134.053 239.804 133.093 240.036 132.493 240.499C131.893 240.961 131.593 241.536 131.593 242.222C131.593 242.959 131.97 243.619 132.724 244.202C133.496 244.785 135.57 245.847 138.947 247.39C142.188 248.848 144.434 250.416 145.685 252.097C146.954 253.759 147.588 255.86 147.588 258.397ZM169.987 269.815H159.829V240.524H150.648V232.218H179.142V240.524H169.987V269.815ZM76.2618 309.815H66.6118V281.989H57.8902V274.098H84.959V281.989H76.2618V309.815ZM120.676 309.815H110.977V295.254H99.7638V309.815H90.0649V274.098H99.7638V287.339H110.977V274.098H120.676V309.815ZM150.335 309.815L148.576 303.121H136.971L135.163 309.815H124.561L136.214 273.951H149.089L160.889 309.815H150.335ZM146.572 295.206L145.033 289.342C144.675 288.039 144.235 286.354 143.714 284.285C143.209 282.217 142.875 280.735 142.712 279.839C142.566 280.67 142.273 282.038 141.833 283.943C141.409 285.849 140.457 289.603 138.974 295.206H146.572ZM164.773 309.815V274.098H174.472V309.815H164.773ZM65.0952 337.815H59.8009V312.437H74.3472V316.846H65.0952V323.39H73.705V327.782H65.0952V337.815ZM84.6928 323.703H86.4287C88.1298 323.703 89.3854 323.419 90.1955 322.852C91.0055 322.285 91.4105 321.394 91.4105 320.179C91.4105 318.975 90.9939 318.119 90.1607 317.61C89.3391 317.101 88.0604 316.846 86.3245 316.846H84.6928V323.703ZM84.6928 328.077V337.815H79.3117V312.437H86.7064C90.155 312.437 92.7066 313.068 94.3615 314.329C96.0163 315.579 96.8437 317.482 96.8437 320.04C96.8437 321.533 96.4329 322.864 95.6113 324.032C94.7896 325.19 93.6266 326.098 92.1222 326.758C95.9411 332.463 98.4291 336.149 99.5864 337.815H93.6151L87.557 328.077H84.6928ZM123.437 312.437V328.858C123.437 330.733 123.014 332.376 122.17 333.788C121.336 335.2 120.127 336.282 118.542 337.034C116.956 337.786 115.082 338.162 112.918 338.162C109.654 338.162 107.12 337.329 105.315 335.662C103.509 333.985 102.607 331.693 102.607 328.789V312.437H107.97V327.973C107.97 329.928 108.364 331.363 109.151 332.278C109.938 333.192 111.24 333.649 113.056 333.649C114.815 333.649 116.088 333.192 116.875 332.278C117.674 331.352 118.073 329.905 118.073 327.938V312.437H123.437ZM129.651 337.815V312.437H135.032V337.815H129.651ZM151.21 337.815H145.829V316.915H138.938V312.437H158.102V316.915H151.21V337.815ZM176.987 330.767C176.987 333.059 176.16 334.864 174.505 336.183C172.862 337.502 170.571 338.162 167.631 338.162C164.923 338.162 162.528 337.653 160.445 336.635V331.635C162.158 332.399 163.604 332.937 164.785 333.25C165.976 333.562 167.064 333.718 168.048 333.718C169.228 333.718 170.131 333.493 170.756 333.041C171.392 332.59 171.711 331.919 171.711 331.028C171.711 330.53 171.572 330.09 171.294 329.709C171.016 329.315 170.605 328.939 170.061 328.58C169.529 328.222 168.436 327.649 166.781 326.862C165.23 326.133 164.067 325.433 163.292 324.761C162.516 324.09 161.897 323.309 161.434 322.418C160.971 321.527 160.74 320.485 160.74 319.294C160.74 317.049 161.498 315.284 163.014 313.999C164.541 312.715 166.648 312.072 169.332 312.072C170.652 312.072 171.907 312.229 173.099 312.541C174.303 312.854 175.558 313.293 176.866 313.86L175.13 318.044C173.776 317.488 172.654 317.101 171.763 316.881C170.883 316.661 170.015 316.551 169.159 316.551C168.14 316.551 167.359 316.788 166.815 317.263C166.272 317.737 166 318.356 166 319.12C166 319.594 166.11 320.011 166.329 320.37C166.549 320.717 166.896 321.058 167.371 321.394C167.857 321.718 168.997 322.308 170.791 323.164C173.163 324.299 174.789 325.438 175.668 326.584C176.548 327.718 176.987 329.113 176.987 330.767Z" fill="white"/>
</svg>
