<svg width="235" height="366" viewBox="0 0 235 366" fill="none" xmlns="http://www.w3.org/2000/svg">
<path fill-rule="evenodd" clip-rule="evenodd" d="M74.7744 199.695C62.138 190.799 55.9949 176.55 55.9949 156.134C55.9949 127.313 68.5967 99.9946 88.8893 84.8154L88.9541 84.7723C99.0356 77.2494 110.474 73.2705 122.034 73.2705C133.594 73.2705 145.033 77.2494 155.115 84.7723L155.197 84.8283C175.481 100.012 188.074 127.322 188.074 156.134C188.074 176.55 181.931 190.799 169.294 199.695C158.487 207.304 143.027 211.003 122.034 211.003C101.041 211.003 85.5821 207.304 74.7744 199.695Z" fill="#FFC700"/>
<path fill-rule="evenodd" clip-rule="evenodd" d="M192.714 149.307C192.859 150.979 192.933 152.67 192.933 154.377C192.933 166.487 189.223 177.81 182.78 187.463C181.231 192.523 176.948 197.16 170.668 201.023C158.065 211.752 141.111 218.324 122.466 218.324C109.876 218.324 98.0567 215.327 87.8274 210.077C101.054 212.533 115.072 212.151 128.996 208.436C160.106 200.136 183.264 177.192 192.714 149.307Z" fill="#FF9900"/>
<path d="M48.767 47.5059C47.1249 46.557 45.8527 45.0834 45.1566 43.3241C44.4604 41.5649 44.3811 39.623 44.9315 37.8132C45.4819 36.0034 46.6298 34.4318 48.1891 33.3531C49.7484 32.2745 51.6277 31.7519 53.5224 31.8702C64.4555 32.5334 74.6147 34.7037 83.8748 38.3295C80.9634 33.8505 77.6762 29.6254 74.0484 25.6995C72.7728 24.2996 72.009 22.5117 71.8809 20.6254C71.7527 18.7392 72.2677 16.8651 73.3423 15.3068C74.417 13.7485 75.9884 12.5972 77.8019 12.0395C79.6154 11.4818 81.5649 11.5504 83.3344 12.2341C92.248 15.6033 100.633 20.2231 108.235 25.9535L113.855 6.14515C114.351 4.36755 115.42 2.80216 116.899 1.6913C118.378 0.580446 120.183 -0.0139092 122.035 0.000247145C123.888 -0.011929 125.694 0.585344 127.172 1.69946C128.65 2.81358 129.718 4.38229 130.21 6.16238L135.83 25.9708C143.432 20.2403 151.817 15.6205 160.73 12.2513C162.497 11.5731 164.442 11.5075 166.251 12.0652C168.06 12.6228 169.628 13.7712 170.701 15.3251C171.775 16.8789 172.291 18.7477 172.168 20.6299C172.044 22.5121 171.288 24.2979 170.021 25.6995C166.396 29.6244 163.112 33.848 160.203 38.3252C169.463 34.6865 179.622 32.5162 190.551 31.8659C192.446 31.7476 194.325 32.2701 195.884 33.3488C197.444 34.4275 198.592 35.9991 199.142 37.8089C199.692 39.6187 199.613 41.5606 198.917 43.3198C198.221 45.0791 196.949 46.5527 195.306 47.5016C184.871 53.4872 171.097 63.8952 163.069 80.0477C183.907 97.1475 196.724 125.939 196.724 156.129C196.724 179.223 189.176 196.241 174.288 206.722C161.967 215.399 144.873 219.615 122.035 219.615C99.1958 219.615 82.1023 215.399 69.7859 206.727C54.8972 196.245 47.349 179.227 47.349 156.133C47.349 125.943 60.167 97.1389 81.0042 80.052C72.972 63.8995 59.2029 53.4915 48.767 47.5059ZM55.9952 156.133C55.9952 176.549 62.1383 190.798 74.7747 199.695C85.5824 207.304 101.042 211.003 122.035 211.003C143.027 211.003 158.487 207.304 169.295 199.695C181.931 190.798 188.074 176.549 188.074 156.133C188.074 127.321 175.481 100.011 155.197 84.8275L155.115 84.7715C145.033 77.2487 133.595 73.2698 122.035 73.2698C110.475 73.2698 99.0358 77.2487 88.9544 84.7715L88.8895 84.8146C68.597 99.9939 55.9952 127.312 55.9952 156.133Z" fill="black"/>
<path d="M48.767 47.5059C47.1249 46.557 45.8527 45.0834 45.1566 43.3241C44.4604 41.5649 44.3811 39.623 44.9315 37.8132C45.4819 36.0034 46.6298 34.4318 48.1891 33.3531C49.7484 32.2745 51.6277 31.7519 53.5224 31.8702C64.4555 32.5334 74.6147 34.7037 83.8748 38.3295C80.9634 33.8505 77.6762 29.6254 74.0484 25.6995C72.7728 24.2996 72.009 22.5117 71.8809 20.6254C71.7527 18.7392 72.2677 16.8651 73.3423 15.3068C74.417 13.7485 75.9884 12.5972 77.8019 12.0395C79.6154 11.4818 81.5649 11.5504 83.3344 12.2341C92.248 15.6033 100.633 20.2231 108.235 25.9535L113.855 6.14515C114.351 4.36755 115.42 2.80216 116.899 1.6913C118.378 0.580446 120.183 -0.0139092 122.035 0.000247145C123.888 -0.011929 125.694 0.585344 127.172 1.69946C128.65 2.81358 129.718 4.38229 130.21 6.16238L135.83 25.9708C143.432 20.2403 151.817 15.6205 160.73 12.2513C162.497 11.5731 164.442 11.5075 166.251 12.0652C168.06 12.6228 169.628 13.7712 170.701 15.3251C171.775 16.8789 172.291 18.7477 172.168 20.6299C172.044 22.5121 171.288 24.2979 170.021 25.6995C166.396 29.6244 163.112 33.848 160.203 38.3252C169.463 34.6865 179.622 32.5162 190.551 31.8659C192.446 31.7476 194.325 32.2701 195.884 33.3488C197.444 34.4275 198.592 35.9991 199.142 37.8089C199.692 39.6187 199.613 41.5606 198.917 43.3198C198.221 45.0791 196.949 46.5527 195.306 47.5016C184.871 53.4872 171.097 63.8952 163.069 80.0477C183.907 97.1475 196.724 125.939 196.724 156.129C196.724 179.223 189.176 196.241 174.288 206.722C161.967 215.399 144.873 219.615 122.035 219.615C99.1958 219.615 82.1023 215.399 69.7859 206.727C54.8972 196.245 47.349 179.227 47.349 156.133C47.349 125.943 60.167 97.1389 81.0042 80.052C72.972 63.8995 59.2029 53.4915 48.767 47.5059ZM55.9952 156.133C55.9952 176.549 62.1383 190.798 74.7747 199.695C85.5824 207.304 101.042 211.003 122.035 211.003C143.027 211.003 158.487 207.304 169.295 199.695C181.931 190.798 188.074 176.549 188.074 156.133C188.074 127.321 175.481 100.011 155.197 84.8275L155.115 84.7715C145.033 77.2487 133.595 73.2698 122.035 73.2698C110.475 73.2698 99.0358 77.2487 88.9544 84.7715L88.8895 84.8146C68.597 99.9939 55.9952 127.312 55.9952 156.133Z" fill="url(#paint0_linear)"/>
<path d="M154.488 156.796C149.883 156.796 146.149 153.077 146.149 148.489C146.149 143.902 149.883 140.183 154.488 140.183C159.094 140.183 162.827 143.902 162.827 148.489C162.827 153.077 159.094 156.796 154.488 156.796Z" fill="black"/>
<path d="M89.5814 156.796C84.9759 156.796 81.2424 153.077 81.2424 148.489C81.2424 143.902 84.9759 140.183 89.5814 140.183C94.1869 140.183 97.9204 143.902 97.9204 148.489C97.9204 153.077 94.1869 156.796 89.5814 156.796Z" fill="black"/>
<path d="M121.836 197.494C136.794 197.494 147.973 185.725 147.973 175.201C147.973 172.105 147.018 169.698 145.137 168.053C141.765 165.099 136.902 165.728 131.269 166.455C128.145 166.921 124.994 167.184 121.836 167.243C118.678 167.184 115.527 166.921 112.403 166.455C110.159 166.114 107.897 165.912 105.629 165.848C102.866 165.848 100.441 166.369 98.5344 168.053C96.6279 169.737 95.6984 172.105 95.6984 175.201C95.6984 185.725 106.878 197.494 121.836 197.494Z" fill="black"/>
<ellipse rx="15.6734" ry="6.78532" transform="matrix(-1 0 0 1 121.416 184.076)" fill="#FF0000"/>
<rect x="30" y="206" width="175" height="160" fill="#FF0000"/>
<path d="M58.6102 233.218H71.7255C76.8344 233.218 80.6233 233.981 83.092 235.507C85.5779 237.015 86.8209 239.373 86.8209 242.579C86.8209 244.687 86.2808 246.487 85.2007 247.979C84.1207 249.471 82.6977 250.431 80.9319 250.859V251.116C83.2635 251.734 84.9522 252.762 85.9979 254.202C87.0437 255.642 87.5666 257.511 87.5666 259.808C87.5666 263.22 86.2808 265.912 83.7092 267.883C81.1547 269.838 77.6659 270.815 73.2427 270.815H58.6102V233.218ZM68.7681 247.645H71.8283C73.2856 247.645 74.4085 247.345 75.1972 246.745C76.0029 246.145 76.4058 245.253 76.4058 244.07C76.4058 241.961 74.8114 240.907 71.6226 240.907H68.7681V247.645ZM68.7681 255.077V262.972H72.3427C75.5143 262.972 77.1002 261.634 77.1002 258.96C77.1002 257.708 76.6716 256.748 75.8143 256.08C74.9743 255.411 73.7485 255.077 72.1369 255.077H68.7681ZM116.42 270.815H94.0985V233.218H116.42V241.37H104.256V247.285H115.52V255.437H104.256V262.534H116.42V270.815ZM147.588 259.397C147.588 261.729 146.997 263.803 145.814 265.62C144.631 267.42 142.925 268.826 140.696 269.838C138.467 270.832 135.853 271.329 132.853 271.329C130.35 271.329 128.25 271.158 126.552 270.815C124.855 270.455 123.089 269.838 121.255 268.963V259.911C123.192 260.906 125.206 261.686 127.298 262.251C129.39 262.8 131.31 263.074 133.058 263.074C134.567 263.074 135.673 262.817 136.376 262.303C137.079 261.771 137.43 261.094 137.43 260.271C137.43 259.757 137.285 259.311 136.993 258.934C136.719 258.54 136.264 258.145 135.63 257.751C135.013 257.357 133.35 256.551 130.641 255.334C128.19 254.219 126.347 253.139 125.112 252.094C123.895 251.048 122.986 249.848 122.386 248.493C121.803 247.139 121.512 245.536 121.512 243.684C121.512 240.221 122.772 237.521 125.292 235.584C127.812 233.647 131.276 232.678 135.682 232.678C139.573 232.678 143.542 233.578 147.588 235.378L144.476 243.222C140.962 241.61 137.927 240.804 135.373 240.804C134.053 240.804 133.093 241.036 132.493 241.499C131.893 241.961 131.593 242.536 131.593 243.222C131.593 243.959 131.97 244.619 132.724 245.202C133.496 245.785 135.57 246.847 138.947 248.39C142.188 249.848 144.434 251.416 145.685 253.097C146.954 254.759 147.588 256.86 147.588 259.397ZM169.987 270.815H159.829V241.524H150.648V233.218H179.142V241.524H169.987V270.815ZM76.2618 310.815H66.6118V282.989H57.8902V275.098H84.959V282.989H76.2618V310.815ZM120.676 310.815H110.977V296.254H99.7638V310.815H90.0649V275.098H99.7638V288.339H110.977V275.098H120.676V310.815ZM150.335 310.815L148.576 304.121H136.971L135.163 310.815H124.561L136.214 274.951H149.089L160.889 310.815H150.335ZM146.572 296.206L145.033 290.342C144.675 289.039 144.235 287.354 143.714 285.285C143.209 283.217 142.875 281.735 142.712 280.839C142.566 281.67 142.273 283.038 141.833 284.943C141.409 286.849 140.457 290.603 138.974 296.206H146.572ZM164.773 310.815V275.098H174.472V310.815H164.773ZM65.0952 338.815H59.8009V313.437H74.3472V317.846H65.0952V324.39H73.705V328.782H65.0952V338.815ZM84.6928 324.703H86.4287C88.1298 324.703 89.3854 324.419 90.1955 323.852C91.0055 323.285 91.4105 322.394 91.4105 321.179C91.4105 319.975 90.9939 319.119 90.1607 318.61C89.3391 318.101 88.0604 317.846 86.3245 317.846H84.6928V324.703ZM84.6928 329.077V338.815H79.3117V313.437H86.7064C90.155 313.437 92.7066 314.068 94.3615 315.329C96.0163 316.579 96.8437 318.482 96.8437 321.04C96.8437 322.533 96.4329 323.864 95.6113 325.032C94.7896 326.19 93.6266 327.098 92.1222 327.758C95.9411 333.463 98.4291 337.149 99.5864 338.815H93.6151L87.557 329.077H84.6928ZM123.437 313.437V329.858C123.437 331.733 123.014 333.376 122.17 334.788C121.336 336.2 120.127 337.282 118.542 338.034C116.956 338.786 115.082 339.162 112.918 339.162C109.654 339.162 107.12 338.329 105.315 336.662C103.509 334.985 102.607 332.693 102.607 329.789V313.437H107.97V328.973C107.97 330.928 108.364 332.363 109.151 333.278C109.938 334.192 111.24 334.649 113.056 334.649C114.815 334.649 116.088 334.192 116.875 333.278C117.674 332.352 118.073 330.905 118.073 328.938V313.437H123.437ZM129.651 338.815V313.437H135.032V338.815H129.651ZM151.21 338.815H145.829V317.915H138.938V313.437H158.102V317.915H151.21V338.815ZM176.987 331.767C176.987 334.059 176.16 335.864 174.505 337.183C172.862 338.502 170.571 339.162 167.631 339.162C164.923 339.162 162.528 338.653 160.445 337.635V332.635C162.158 333.399 163.604 333.937 164.785 334.25C165.976 334.562 167.064 334.718 168.048 334.718C169.228 334.718 170.131 334.493 170.756 334.041C171.392 333.59 171.711 332.919 171.711 332.028C171.711 331.53 171.572 331.09 171.294 330.709C171.016 330.315 170.605 329.939 170.061 329.58C169.529 329.222 168.436 328.649 166.781 327.862C165.23 327.133 164.067 326.433 163.292 325.761C162.516 325.09 161.897 324.309 161.434 323.418C160.971 322.527 160.74 321.485 160.74 320.294C160.74 318.049 161.498 316.284 163.014 314.999C164.541 313.715 166.648 313.072 169.332 313.072C170.652 313.072 171.907 313.229 173.099 313.541C174.303 313.854 175.558 314.293 176.866 314.86L175.13 319.044C173.776 318.488 172.654 318.101 171.763 317.881C170.883 317.661 170.015 317.551 169.159 317.551C168.14 317.551 167.359 317.788 166.815 318.263C166.272 318.737 166 319.356 166 320.12C166 320.594 166.11 321.011 166.329 321.37C166.549 321.717 166.896 322.058 167.371 322.394C167.857 322.718 168.997 323.308 170.791 324.164C173.163 325.299 174.789 326.438 175.668 327.584C176.548 328.718 176.987 330.113 176.987 331.767Z" fill="white"/>
<defs>
<linearGradient id="paint0_linear" x1="122.037" y1="3.08127e-07" x2="114.709" y2="139.771" gradientUnits="userSpaceOnUse">
<stop stop-color="#009806"/>
<stop offset="1" stop-color="white" stop-opacity="0"/>
</linearGradient>
</defs>
</svg>
