<svg width="244" height="545" viewBox="0 0 244 545" fill="none" xmlns="http://www.w3.org/2000/svg">
<rect y="246" width="244" height="249.011" fill="#FF0000"/>
<path d="M29.6468 286.096H50.2145C58.7374 286.096 64.8136 287.359 68.4432 289.887C72.0728 292.414 73.8876 296.043 73.8876 300.775C73.8876 303.356 73.4171 305.548 72.4761 307.349C71.5619 309.15 70.3924 310.575 68.9675 311.624C67.5694 312.672 66.131 313.385 64.6523 313.761V314.164C66.2654 314.568 67.8651 315.24 69.4514 316.181C71.0646 317.095 72.3954 318.48 73.444 320.335C74.5194 322.163 75.0571 324.65 75.0571 327.796C75.0571 331.371 74.143 334.45 72.3147 337.031C70.5134 339.612 67.9323 341.602 64.5716 343C61.2109 344.371 57.2183 345.056 52.5939 345.056H29.6468V286.096ZM45.5767 308.72H50.3758C53.0107 308.72 54.8658 308.182 55.9412 307.107C57.0167 306.005 57.5544 304.674 57.5544 303.114C57.5544 301.501 56.936 300.278 55.6993 299.444C54.4894 298.584 52.6074 298.154 50.0532 298.154H45.5767V308.72ZM45.5767 320.375V332.756H51.1824C53.9517 332.756 55.8875 332.165 56.9898 330.982C58.0921 329.772 58.6433 328.266 58.6433 326.465C58.6433 325.416 58.4013 324.435 57.9173 323.521C57.4603 322.58 56.6671 321.827 55.5379 321.262C54.4087 320.671 52.8493 320.375 50.8598 320.375H45.5767ZM120.306 345.056H85.3006V286.096H120.306V298.88H101.231V308.155H118.895V320.94H101.231V332.07H120.306V345.056ZM169.185 327.15C169.185 330.35 168.378 333.388 166.765 336.265C165.152 339.115 162.638 341.427 159.223 343.201C155.836 344.976 151.453 345.863 146.076 345.863C143.388 345.863 141.022 345.742 138.978 345.5C136.962 345.258 135.08 344.868 133.332 344.33C131.585 343.766 129.77 343.04 127.888 342.153V327.957C131.087 329.57 134.314 330.807 137.567 331.667C140.82 332.501 143.764 332.917 146.399 332.917C147.985 332.917 149.276 332.729 150.27 332.353C151.292 331.976 152.045 331.466 152.529 330.82C153.013 330.148 153.255 329.382 153.255 328.522C153.255 327.5 152.892 326.64 152.166 325.941C151.467 325.215 150.338 324.462 148.778 323.682C147.219 322.902 145.162 321.935 142.608 320.778C140.43 319.757 138.454 318.708 136.68 317.633C134.932 316.557 133.426 315.334 132.163 313.963C130.926 312.565 129.972 310.938 129.299 309.083C128.627 307.228 128.291 305.037 128.291 302.509C128.291 298.719 129.219 295.546 131.074 292.992C132.956 290.411 135.564 288.475 138.898 287.184C142.258 285.894 146.13 285.249 150.512 285.249C154.357 285.249 157.812 285.679 160.877 286.539C163.969 287.4 166.738 288.381 169.185 289.483L164.305 301.784C161.778 300.627 159.291 299.713 156.844 299.041C154.397 298.342 152.126 297.993 150.028 297.993C148.657 297.993 147.528 298.167 146.641 298.517C145.781 298.84 145.135 299.283 144.705 299.848C144.302 300.412 144.1 301.058 144.1 301.784C144.1 302.698 144.45 303.518 145.149 304.244C145.875 304.969 147.071 305.763 148.738 306.623C150.432 307.456 152.731 308.545 155.634 309.89C158.511 311.18 160.958 312.578 162.974 314.084C164.99 315.563 166.523 317.35 167.572 319.448C168.647 321.518 169.185 324.085 169.185 327.15ZM204.311 345.056H188.381V299.122H173.984V286.096H218.668V299.122H204.311V345.056ZM57.3286 408.056H42.1951V364.419H28.5176V352.044H70.9678V364.419H57.3286V408.056ZM126.981 408.056H111.771V385.222H94.1851V408.056H78.9751V352.044H94.1851V372.809H111.771V352.044H126.981V408.056ZM173.492 408.056L170.733 397.559H152.535L149.7 408.056H133.072L151.347 351.814H171.538L190.043 408.056H173.492ZM167.592 385.146L165.178 375.951C164.923 374.954 164.552 373.537 164.067 371.698C163.582 369.833 163.096 367.918 162.611 365.951C162.151 363.959 161.794 362.324 161.538 361.047C161.308 362.324 160.976 363.908 160.542 365.798C160.134 367.662 159.699 369.514 159.24 371.353C158.805 373.192 158.422 374.725 158.09 375.951L155.677 385.146H167.592ZM196.134 408.056V352.044H211.344V408.056H196.134ZM39.8167 453.056H31.514V413.258H54.3261V420.172H39.8167V430.435H53.3188V437.322H39.8167V453.056ZM73.7081 413.258C77.3196 413.258 80.2958 413.693 82.6369 414.565C84.9962 415.436 86.7474 416.751 87.8908 418.512C89.0341 420.272 89.6058 422.495 89.6058 425.181C89.6058 426.996 89.2609 428.584 88.5713 429.945C87.8817 431.306 86.9743 432.458 85.8491 433.402C84.7239 434.346 83.508 435.117 82.2014 435.716L93.9068 453.056H84.5425L75.042 437.785H70.5504V453.056H62.1115V413.258H73.7081ZM73.1092 420.172H70.5504V430.925H73.2726C76.0674 430.925 78.0636 430.462 79.2614 429.537C80.4773 428.593 81.0853 427.214 81.0853 425.399C81.0853 423.511 80.4319 422.169 79.1253 421.37C77.8368 420.571 75.8314 420.172 73.1092 420.172ZM131.31 413.258V439.01C131.31 441.75 130.702 444.227 129.486 446.441C128.288 448.637 126.464 450.38 124.014 451.668C121.583 452.957 118.516 453.601 114.813 453.601C109.55 453.601 105.54 452.258 102.781 449.572C100.023 446.886 98.6435 443.329 98.6435 438.901V413.258H107.055V437.622C107.055 440.906 107.727 443.211 109.069 444.536C110.412 445.861 112.4 446.523 115.031 446.523C116.882 446.523 118.379 446.206 119.523 445.57C120.684 444.935 121.537 443.955 122.082 442.63C122.626 441.306 122.898 439.618 122.898 437.567V413.258H131.31ZM141.055 453.056V413.258H149.494V453.056H141.055ZM174.865 453.056H166.426V420.281H155.619V413.258H185.672V420.281H174.865V453.056ZM215.29 442.004C215.29 444.364 214.718 446.414 213.575 448.156C212.431 449.899 210.762 451.242 208.566 452.185C206.388 453.129 203.738 453.601 200.617 453.601C199.238 453.601 197.886 453.51 196.561 453.329C195.254 453.147 193.993 452.884 192.777 452.539C191.579 452.176 190.436 451.732 189.347 451.205V443.365C191.235 444.2 193.194 444.953 195.227 445.625C197.26 446.296 199.274 446.632 201.27 446.632C202.65 446.632 203.757 446.451 204.591 446.088C205.444 445.725 206.061 445.226 206.443 444.59C206.824 443.955 207.014 443.229 207.014 442.413C207.014 441.414 206.678 440.562 206.007 439.854C205.336 439.146 204.41 438.484 203.23 437.867C202.069 437.249 200.753 436.587 199.283 435.879C198.358 435.444 197.35 434.917 196.262 434.3C195.173 433.665 194.138 432.894 193.158 431.987C192.178 431.079 191.371 429.981 190.735 428.693C190.118 427.386 189.81 425.825 189.81 424.011C189.81 421.633 190.354 419.601 191.443 417.913C192.532 416.225 194.084 414.937 196.098 414.047C198.131 413.14 200.526 412.686 203.285 412.686C205.354 412.686 207.323 412.931 209.192 413.421C211.079 413.893 213.048 414.583 215.099 415.49L212.377 422.051C210.544 421.306 208.902 420.735 207.45 420.336C205.998 419.918 204.519 419.709 203.013 419.709C201.96 419.709 201.062 419.882 200.318 420.227C199.574 420.553 199.011 421.025 198.63 421.642C198.249 422.241 198.058 422.94 198.058 423.738C198.058 424.682 198.33 425.481 198.875 426.134C199.437 426.769 200.272 427.386 201.379 427.985C202.504 428.584 203.902 429.283 205.571 430.081C207.604 431.043 209.337 432.05 210.771 433.103C212.223 434.137 213.339 435.362 214.119 436.778C214.899 438.175 215.29 439.917 215.29 442.004Z" fill="white"/>
<path d="M184.695 126.537C180.077 96.3832 153.673 73.2688 121.791 73.2688C89.5987 73.2688 62.9913 96.8346 58.7579 127.418C52.3833 137.315 48.7285 148.841 48.7285 161.145C48.7285 173.786 52.5862 185.605 59.2877 195.681C60.8985 200.965 65.3544 205.806 71.8872 209.839C84.9946 221.037 102.626 227.895 122.015 227.895C141.404 227.895 159.034 221.037 172.142 209.84C178.676 205.807 183.133 200.964 184.743 195.68C191.444 185.604 195.302 173.785 195.302 161.145C195.302 148.474 191.426 136.628 184.695 126.537Z" fill="#FFE600"/>
<path fill-rule="evenodd" clip-rule="evenodd" d="M72.414 208.451C59.2719 199.164 52.8829 184.29 52.8829 162.98C52.8829 132.895 65.9891 104.379 87.0938 88.5337L87.1613 88.4888C97.6462 80.636 109.543 76.4827 121.565 76.4827C133.588 76.4827 145.485 80.636 155.97 88.4888L156.055 88.5472C177.151 104.396 190.248 132.904 190.248 162.98C190.248 184.29 183.859 199.164 170.717 208.451C159.477 216.393 143.399 220.255 121.565 220.255C99.7324 220.255 83.6543 216.393 72.414 208.451Z" fill="#FFE600"/>
<path fill-rule="evenodd" clip-rule="evenodd" d="M195.075 155.853C195.225 157.599 195.302 159.364 195.302 161.146C195.302 173.786 191.444 185.606 184.742 195.682C183.132 200.965 178.677 205.805 172.146 209.837C159.039 221.037 141.406 227.896 122.015 227.896C108.921 227.896 96.6285 224.768 85.9898 219.288C99.7463 221.851 114.325 221.453 128.806 217.575C161.161 208.911 185.246 184.961 195.075 155.853Z" fill="#F2A501"/>
<path d="M45.3655 49.5891C43.6577 48.5985 42.3345 47.0604 41.6105 45.224C40.8865 43.3876 40.804 41.3605 41.3765 39.4714C41.9489 37.5822 43.1428 35.9417 44.7645 34.8158C46.3861 33.6898 48.3407 33.1444 50.3112 33.2678C61.6819 33.9601 72.2477 36.2255 81.8784 40.0103C78.8505 35.335 75.4317 30.9246 71.6587 26.8265C70.3321 25.3653 69.5377 23.499 69.4045 21.53C69.2712 19.5611 69.8068 17.6048 70.9244 15.9782C72.0421 14.3515 73.6763 13.1498 75.5625 12.5676C77.4486 11.9855 79.476 12.0571 81.3164 12.7707C90.5867 16.2877 99.3073 21.11 107.214 27.0917L113.059 6.41484C113.574 4.5593 114.687 2.92526 116.224 1.7657C117.762 0.60614 119.639 -0.014275 121.566 0.000502122C123.493 -0.0122079 125.371 0.611253 126.908 1.77422C128.446 2.93718 129.556 4.57468 130.068 6.43282L135.913 27.1097C143.819 21.128 152.54 16.3057 161.81 12.7887C163.648 12.0808 165.671 12.0123 167.552 12.5944C169.433 13.1765 171.064 14.3753 172.18 15.9972C173.296 17.6192 173.834 19.5699 173.705 21.5346C173.577 23.4994 172.79 25.3636 171.472 26.8265C167.703 30.9235 164.287 35.3324 161.262 40.0058C170.892 36.2076 181.458 33.9421 192.824 33.2633C194.795 33.1399 196.749 33.6853 198.371 34.8113C199.993 35.9372 201.187 37.5777 201.759 39.4669C202.332 41.356 202.249 43.3831 201.525 45.2195C200.801 47.0559 199.478 48.594 197.77 49.5846C186.916 55.8326 172.592 66.697 164.243 83.5577C185.914 101.407 199.245 131.461 199.245 162.975C199.245 187.082 191.395 204.846 175.91 215.786C163.096 224.844 145.318 229.244 121.566 229.244C97.8126 229.244 80.035 224.844 67.2256 215.791C51.741 204.85 43.8908 187.086 43.8908 162.979C43.8908 131.465 57.2217 101.398 78.893 83.5622C70.5392 66.7015 56.2191 55.8371 45.3655 49.5891ZM52.883 162.979C52.883 184.29 59.272 199.164 72.4141 208.451C83.6544 216.393 99.7324 220.254 121.566 220.254C143.399 220.254 159.477 216.393 170.717 208.451C183.859 199.164 190.248 184.29 190.248 162.979C190.248 132.904 177.151 104.396 156.055 88.5471L155.97 88.4887C145.485 80.6359 133.588 76.4826 121.566 76.4826C109.543 76.4826 97.6462 80.6359 87.1613 88.4887L87.0939 88.5336C65.9891 104.378 52.883 132.895 52.883 162.979Z" fill="black"/>
<path fill-rule="evenodd" clip-rule="evenodd" d="M41.6105 45.2237C42.3346 47.0601 43.6577 48.5983 45.3655 49.5889C56.1313 55.7863 70.3078 66.5258 78.6891 83.1539C90.9726 74.954 105.791 70.1643 121.744 70.1643C137.582 70.1643 152.302 74.8854 164.533 82.9776C172.921 66.4473 187.041 55.7605 197.77 49.5844C199.478 48.5938 200.801 47.0556 201.525 45.2192C202.249 43.3828 202.332 41.3558 201.759 39.4666C201.187 37.5775 199.993 35.937 198.371 34.811C196.749 33.685 194.795 33.1396 192.824 33.2631C181.458 33.9418 170.892 36.2073 161.262 40.0056C164.287 35.3321 167.703 30.9233 171.472 26.8263C172.79 25.3633 173.577 23.4991 173.705 21.5344C173.834 19.5697 173.296 17.619 172.18 15.997C171.064 14.375 169.433 13.1763 167.552 12.5942C165.671 12.0121 163.648 12.0805 161.81 12.7885C152.54 16.3054 143.819 21.1278 135.913 27.1095L130.068 6.43257C129.556 4.57444 128.446 2.93694 126.908 1.77397C125.371 0.611008 123.493 -0.0124521 121.566 0.000257981C119.639 -0.0145191 117.762 0.605896 116.224 1.76546C114.687 2.92502 113.574 4.55905 113.059 6.41459L107.214 27.0915C99.3073 21.1098 90.5867 16.2875 81.3164 12.7705C79.4761 12.0568 77.4486 11.9853 75.5625 12.5674C73.6763 13.1495 72.0421 14.3513 70.9244 15.9779C69.8068 17.6046 69.2712 19.5608 69.4045 21.5298C69.5378 23.4987 70.3321 25.365 71.6588 26.8263C75.4317 30.9244 78.8505 35.3347 81.8784 40.0101C72.2477 36.2253 61.6819 33.9598 50.3112 33.2676C48.3407 33.1441 46.3862 33.6895 44.7645 34.8155C43.1428 35.9415 41.9489 37.582 41.3765 39.4711C40.804 41.3602 40.8865 43.3873 41.6105 45.2237Z" fill="#689F0D"/>
<path d="M106 226C106 221.582 109.582 218 114 218H130C134.418 218 138 221.582 138 226V252C138 260.837 130.837 268 122 268V268C113.163 268 106 260.837 106 252V226Z" fill="black"/>
<path d="M114 218H130V251C130 255.418 126.418 259 122 259V259C117.582 259 114 255.418 114 251V218Z" fill="#F2A501"/>
<path d="M155.318 163.671C150.528 163.671 146.645 159.789 146.645 155C146.645 150.212 150.528 146.33 155.318 146.33C160.108 146.33 163.991 150.212 163.991 155C163.991 159.789 160.108 163.671 155.318 163.671Z" fill="black"/>
<path d="M87.8136 163.671C83.0237 163.671 79.1408 159.789 79.1408 155C79.1408 150.212 83.0237 146.33 87.8136 146.33C92.6034 146.33 96.4863 150.212 96.4863 155C96.4863 159.789 92.6034 163.671 87.8136 163.671Z" fill="black"/>
<path d="M121.359 206.154C136.915 206.154 148.542 193.869 148.542 182.883C148.542 179.651 147.549 177.138 145.593 175.421C142.086 172.338 137.028 172.994 131.169 173.754C127.92 174.24 124.643 174.514 121.359 174.576C118.074 174.514 114.797 174.24 111.548 173.754C109.215 173.398 106.862 173.186 104.503 173.12C101.63 173.12 99.1075 173.664 97.1247 175.421C95.1419 177.179 94.1753 179.651 94.1753 182.883C94.1753 193.869 105.802 206.154 121.359 206.154Z" fill="black"/>
<ellipse cx="16.3007" cy="7.08282" rx="16.3007" ry="7.08282" transform="matrix(-1 0 0 1 137.224 185.064)" fill="#FF0000"/>
</svg>
