<svg width="995" height="835" viewBox="0 0 995 835" fill="none" xmlns="http://www.w3.org/2000/svg">
<g clip-path="url(#clip0)">
<g clip-path="url(#clip1)">
<path fill-rule="evenodd" clip-rule="evenodd" d="M770.358 370.069C767.534 369.313 765.032 367.4 763.639 364.572C761.039 359.36 763.174 353.035 768.391 350.449C808.687 330.449 828.484 276.39 828.672 275.851C830.636 270.365 836.774 267.566 842.161 269.476C847.647 271.424 850.509 277.449 848.558 282.928C847.647 285.466 825.799 345.501 777.779 369.326C775.383 370.518 772.753 370.709 770.358 370.069Z" fill="black"/>
<path fill-rule="evenodd" clip-rule="evenodd" d="M879.683 426.186C879.683 355.817 822.559 298.769 752.096 298.769C719.709 298.769 690.245 310.91 667.745 330.766H667.735C664.147 333.938 660.749 337.31 657.53 340.862C596.111 397.572 618.536 482.285 588.355 512.268C551.64 548.743 555.872 605.717 617.186 615.813C753.943 638.346 835.434 522.786 835.434 522.786C856.297 500.095 879.683 459.404 879.683 426.186Z" fill="#FAD841"/>
<path fill-rule="evenodd" clip-rule="evenodd" d="M869.068 375.368C869.068 375.789 869.131 376.19 869.131 376.611C869.131 415.353 841.851 462.81 817.526 489.262C817.526 489.262 729.661 613.728 581.19 600.038C589.675 607.594 601.547 613.243 617.187 615.814C753.944 638.336 835.435 522.787 835.435 522.787C856.288 500.096 879.684 459.405 879.684 426.187C879.684 408.112 875.864 390.944 869.068 375.368Z" fill="#FAAC28"/>
<path fill-rule="evenodd" clip-rule="evenodd" d="M752.096 309.306C723.656 309.306 696.186 319.729 674.732 338.657C671.502 341.513 668.347 344.622 665.36 347.932C631.147 379.57 624.583 419.712 618.779 455.113C614.4 481.892 610.611 505.025 595.794 519.738C579.047 536.389 571.818 558.384 577.379 575.753C582.36 591.298 597.103 601.826 618.906 605.42C747.696 626.656 826.031 517.82 826.812 516.713C827.065 516.344 827.35 515.986 827.667 515.649C848.266 493.243 869.13 455.313 869.13 426.183C869.13 361.738 816.628 309.306 752.096 309.306ZM652.834 629.312C640.877 629.312 628.425 628.342 615.476 626.203C585.463 621.27 564.789 605.631 557.286 582.192C549.192 556.962 558.257 527.315 580.915 504.794C590.877 494.887 594.159 474.884 597.947 451.709C603.984 414.875 611.487 369.02 650.364 333.124C653.214 329.91 656.939 326.232 660.749 322.87C686.066 300.527 718.506 288.228 752.096 288.228C828.268 288.228 890.236 350.113 890.236 426.183C890.236 462.079 866.175 504.72 843.644 529.434C837.038 538.561 768.422 629.301 652.834 629.312Z" fill="black"/>
<path d="M688.632 435.352C697.555 435.352 704.789 428.13 704.789 419.221C704.789 410.312 697.555 403.09 688.632 403.09C679.708 403.09 672.475 410.312 672.475 419.221C672.475 428.13 679.708 435.352 688.632 435.352Z" fill="black"/>
<path d="M814.388 435.352C823.311 435.352 830.545 428.13 830.545 419.221C830.545 410.312 823.311 403.09 814.388 403.09C805.465 403.09 798.231 410.312 798.231 419.221C798.231 428.13 805.465 435.352 814.388 435.352Z" fill="black"/>
<path d="M751.895 514.382C722.914 514.382 701.254 491.528 701.254 471.091C701.254 465.079 703.105 460.404 706.749 457.21C713.282 451.474 722.705 452.695 733.619 454.108C739.671 455.012 745.776 455.523 751.895 455.638C758.014 455.523 764.119 455.012 770.171 454.108C774.518 453.446 778.901 453.052 783.296 452.929C788.649 452.929 793.348 453.941 797.041 457.21C800.735 460.48 802.536 465.079 802.536 471.091C802.536 491.528 780.876 514.382 751.895 514.382Z" fill="black"/>
<ellipse rx="30.5721" ry="13.3794" transform="matrix(-1 0 0 1 751.627 488.384)" fill="#FF0000"/>
<path d="M308.058 310.876C327.042 328.094 346.662 345.889 369.488 362.71C387.049 375.654 400.098 391.443 408.28 409.61C415.747 426.257 418.977 444.498 417.87 463.833C416.505 488.256 408.31 513.133 394.115 535.81C380.362 557.717 361.598 576.277 341.16 588.071C320.722 599.865 295.257 606.826 269.399 607.777C242.668 608.751 216.967 603.399 195.122 592.368C177.861 583.633 163.657 571.724 152.98 556.93C141.316 540.772 134.16 521.583 131.724 499.91C128.563 471.743 122.954 445.864 117.527 420.823L117.516 420.773C109.904 385.66 103.339 355.321 105.799 328.461C108.625 297.653 123.087 275.723 151.32 259.432C179.553 243.14 205.785 241.586 233.893 254.544C258.397 265.846 281.388 286.688 308.021 310.843L308.058 310.876Z" fill="#241E08"/>
<path d="M330.469 569.594C367.374 548.298 394.846 503.909 397.235 461.646C398.604 437.567 392.631 403.312 356.479 376.678C333.96 360.095 313.957 341.97 296.299 325.969L296.208 325.887C271.464 303.456 250.094 284.085 228.502 274.148C205.746 263.668 185.292 264.942 162.187 278.275C139.081 291.608 127.751 308.675 125.453 333.612C123.268 357.269 129.367 385.452 136.48 418.083L136.505 418.202C141.54 441.487 147.244 467.864 150.353 495.647C155.342 540.263 182.037 562.561 203.551 573.411C241.329 592.471 293.563 590.891 330.469 569.594Z" fill="#BDDD8B"/>
<path fill-rule="evenodd" clip-rule="evenodd" d="M369.488 362.71C346.662 345.889 327.042 328.094 308.058 310.876L308.021 310.843C281.388 286.688 258.397 265.846 233.893 254.544C205.785 241.586 179.553 243.14 151.32 259.432C123.087 275.723 108.625 297.653 105.799 328.461C103.339 355.321 109.904 385.66 117.516 420.773L117.527 420.823C122.954 445.864 128.563 471.743 131.724 499.91C134.16 521.583 141.316 540.772 152.98 556.93C163.657 571.724 177.861 583.633 195.122 592.368C216.967 603.399 242.668 608.751 269.399 607.777C295.257 606.826 320.722 599.865 341.16 588.071C361.598 576.277 380.362 557.717 394.115 535.81C408.31 513.133 416.505 488.256 417.87 463.833C418.977 444.498 415.747 426.257 408.28 409.61C400.098 391.443 387.049 375.654 369.488 362.71ZM397.235 461.646C394.846 503.909 367.374 548.298 330.469 569.594C293.563 590.891 241.329 592.471 203.551 573.411C182.037 562.561 155.342 540.263 150.353 495.647C147.244 467.864 141.54 441.487 136.505 418.203L136.505 418.203L136.48 418.083C129.367 385.452 123.268 357.269 125.453 333.612C127.751 308.675 139.081 291.608 162.187 278.275C185.292 264.942 205.746 263.668 228.503 274.148C250.094 284.085 271.464 303.456 296.208 325.887L296.299 325.969L296.299 325.97C313.957 341.97 333.96 360.095 356.479 376.678C392.631 403.312 398.604 437.567 397.235 461.646Z" fill="#241E08"/>
<path fill-rule="evenodd" clip-rule="evenodd" d="M397.264 461.114C384.956 497.522 356.048 533.307 321.14 553.45C286.243 573.587 240.775 580.718 203.093 573.179C203.246 573.257 203.399 573.334 203.551 573.411C241.329 592.471 293.563 590.891 330.469 569.594C367.374 548.298 394.846 503.909 397.235 461.646C397.245 461.47 397.254 461.292 397.264 461.114Z" fill="#96C251"/>
<path d="M225.33 473.123C227.615 453.178 236.326 437.841 249.865 430.028C263.405 422.215 281.035 422.317 299.506 430.32C315.647 437.339 329.849 449.438 337.502 462.687C353.24 489.932 342.883 525.456 314.463 541.855C286.043 558.255 250.116 549.439 234.378 522.194C226.724 508.946 223.338 490.597 225.33 473.123Z" fill="#523315"/>
<path d="M236.37 471.965C238.088 456.709 244.719 444.986 255.047 439.026C265.375 433.067 278.836 433.168 292.951 439.315C305.285 444.707 316.144 453.982 322.005 464.128C334.058 484.993 326.196 512.158 304.518 524.667C282.84 537.177 255.395 530.385 243.343 509.52C237.482 499.374 234.872 485.332 236.37 471.965Z" fill="#A87441"/>
<path d="M250.948 470.382C251.955 461.382 255.86 454.469 261.946 450.957C268.032 447.445 275.967 447.51 284.29 451.142C291.563 454.327 297.968 459.803 301.427 465.791C308.54 478.105 303.916 494.128 291.141 501.499C278.367 508.871 262.186 504.854 255.073 492.54C251.614 486.552 250.07 478.267 250.948 470.382Z" fill="#DBB684"/>
<path d="M197.145 459.878C204.628 455.56 207.192 445.997 202.872 438.519C198.552 431.04 188.984 428.478 181.501 432.795C174.019 437.113 171.455 446.676 175.775 454.155C180.095 461.633 189.663 464.195 197.145 459.878Z" fill="black"/>
<path d="M302.595 399.028C310.078 394.71 312.641 385.148 308.321 377.669C304.001 370.19 294.434 367.628 286.951 371.946C279.469 376.264 276.905 385.826 281.225 393.305C285.545 400.783 295.113 403.346 302.595 399.028Z" fill="black"/>
<path fill-rule="evenodd" clip-rule="evenodd" d="M394.665 452.441C367.143 432.992 353.763 401.84 353.763 357.208C353.763 294.2 381.21 234.477 425.407 201.293L425.549 201.198C447.506 184.752 472.42 176.053 497.598 176.053C522.776 176.053 547.69 184.752 569.647 201.198L569.826 201.321C614.005 234.515 641.433 294.219 641.433 357.208C641.433 401.84 628.053 432.992 600.531 452.441C576.992 469.076 543.321 477.162 497.598 477.162C451.875 477.162 418.204 469.076 394.665 452.441Z" fill="#FFC700"/>
<path fill-rule="evenodd" clip-rule="evenodd" d="M651.541 342.283C651.856 345.94 652.016 349.637 652.016 353.368C652.016 379.842 643.938 404.597 629.903 425.699C626.53 436.762 617.201 446.9 603.525 455.343C576.074 478.8 539.149 493.167 498.54 493.167C471.117 493.167 445.375 486.616 423.095 475.138C451.904 480.506 482.434 479.672 512.76 471.55C580.52 453.404 630.959 403.246 651.541 342.283Z" fill="#FF9900"/>
<path d="M338.02 119.728C334.444 117.654 331.673 114.432 330.156 110.586C328.64 106.74 328.467 102.495 329.666 98.5381C330.865 94.5815 333.365 91.1458 336.761 88.7876C340.157 86.4294 344.251 85.2871 348.377 85.5457C372.19 86.9955 394.317 91.7402 414.485 99.6668C408.144 89.875 400.985 80.6381 393.083 72.0553C390.305 68.9949 388.642 65.0863 388.362 60.9626C388.083 56.8389 389.205 52.7418 391.546 49.335C393.886 45.9283 397.309 43.4114 401.259 42.1922C405.208 40.973 409.454 41.1229 413.308 42.6176C432.722 49.9833 450.985 60.083 467.543 72.6108L479.784 29.3061C480.862 25.4199 483.192 21.9977 486.413 19.5692C489.633 17.1406 493.565 15.8413 497.598 15.8722C501.635 15.8456 505.568 17.1513 508.787 19.587C512.007 22.0226 514.332 25.4521 515.403 29.3437L527.644 72.6484C544.202 60.1206 562.465 50.021 581.879 42.6552C585.727 41.1725 589.963 41.0291 593.903 42.2483C597.843 43.4674 601.257 45.978 603.595 49.375C605.933 52.772 607.059 56.8574 606.79 60.9722C606.521 65.0871 604.873 68.9913 602.113 72.0553C594.219 80.6359 587.065 89.8696 580.73 99.6574C600.899 91.7025 623.026 86.9578 646.829 85.5363C650.955 85.2777 655.049 86.42 658.445 88.7782C661.841 91.1364 664.341 94.5721 665.54 98.5286C666.739 102.485 666.566 106.731 665.05 110.577C663.533 114.423 660.762 117.644 657.186 119.719C634.456 132.804 604.458 155.558 586.973 190.87C632.357 228.254 660.274 291.196 660.274 357.198C660.274 407.686 643.834 444.89 611.407 467.804C584.572 486.773 547.342 495.99 497.598 495.99C447.855 495.99 410.625 486.773 383.799 467.813C351.372 444.899 334.932 407.695 334.932 357.207C334.932 291.205 362.849 228.235 408.233 190.88C390.739 155.568 360.75 132.814 338.02 119.728ZM353.763 357.207C353.763 401.84 367.143 432.991 394.665 452.44C418.205 469.075 451.875 477.161 497.598 477.161C543.321 477.161 576.992 469.075 600.531 452.44C628.054 432.991 641.433 401.84 641.433 357.207C641.433 294.218 614.005 234.514 569.827 201.32L569.648 201.198C547.69 184.751 522.776 176.053 497.598 176.053C472.421 176.053 447.506 184.751 425.549 201.198L425.408 201.292C381.21 234.476 353.763 294.199 353.763 357.207Z" fill="black"/>
<path d="M338.02 119.728C334.444 117.654 331.673 114.432 330.156 110.586C328.64 106.74 328.467 102.495 329.666 98.5381C330.865 94.5815 333.365 91.1458 336.761 88.7876C340.157 86.4294 344.251 85.2871 348.377 85.5457C372.19 86.9955 394.317 91.7402 414.485 99.6668C408.144 89.875 400.985 80.6381 393.083 72.0553C390.305 68.9949 388.642 65.0863 388.362 60.9626C388.083 56.8389 389.205 52.7418 391.546 49.335C393.886 45.9283 397.309 43.4114 401.259 42.1922C405.208 40.973 409.454 41.1229 413.308 42.6176C432.722 49.9833 450.985 60.083 467.543 72.6108L479.784 29.3061C480.862 25.4199 483.192 21.9977 486.413 19.5692C489.633 17.1406 493.565 15.8413 497.598 15.8722C501.635 15.8456 505.568 17.1513 508.787 19.587C512.007 22.0226 514.332 25.4521 515.403 29.3437L527.644 72.6484C544.202 60.1206 562.465 50.021 581.879 42.6552C585.727 41.1725 589.963 41.0291 593.903 42.2483C597.843 43.4674 601.257 45.978 603.595 49.375C605.933 52.772 607.059 56.8574 606.79 60.9722C606.521 65.0871 604.873 68.9913 602.113 72.0553C594.219 80.6359 587.065 89.8696 580.73 99.6574C600.899 91.7025 623.026 86.9578 646.829 85.5363C650.955 85.2777 655.049 86.42 658.445 88.7782C661.841 91.1364 664.341 94.5721 665.54 98.5286C666.739 102.485 666.566 106.731 665.05 110.577C663.533 114.423 660.762 117.644 657.186 119.719C634.456 132.804 604.458 155.558 586.973 190.87C632.357 228.254 660.274 291.196 660.274 357.198C660.274 407.686 643.834 444.89 611.407 467.804C584.572 486.773 547.342 495.99 497.598 495.99C447.855 495.99 410.625 486.773 383.799 467.813C351.372 444.899 334.932 407.695 334.932 357.207C334.932 291.205 362.849 228.235 408.233 190.88C390.739 155.568 360.75 132.814 338.02 119.728ZM353.763 357.207C353.763 401.84 367.143 432.991 394.665 452.44C418.205 469.075 451.875 477.161 497.598 477.161C543.321 477.161 576.992 469.075 600.531 452.44C628.054 432.991 641.433 401.84 641.433 357.207C641.433 294.218 614.005 234.514 569.827 201.32L569.648 201.198C547.69 184.751 522.776 176.053 497.598 176.053C472.421 176.053 447.506 184.751 425.549 201.198L425.408 201.292C381.21 234.476 353.763 294.199 353.763 357.207Z" fill="url(#paint0_linear)"/>
<path d="M568.283 358.656C558.252 358.656 550.12 350.526 550.12 340.497C550.12 330.468 558.252 322.337 568.283 322.337C578.314 322.337 586.445 330.468 586.445 340.497C586.445 350.526 578.314 358.656 568.283 358.656Z" fill="black"/>
<path d="M426.915 358.656C416.884 358.656 408.752 350.526 408.752 340.497C408.752 330.468 416.884 322.337 426.915 322.337C436.945 322.337 445.077 330.468 445.077 340.497C445.077 350.526 436.945 358.656 426.915 358.656Z" fill="black"/>
<path d="M497.165 447.63C529.744 447.63 554.093 421.901 554.093 398.893C554.093 392.124 552.012 386.862 547.916 383.266C540.572 376.807 529.979 378.182 517.71 379.773C510.906 380.791 504.044 381.366 497.165 381.496C490.287 381.366 483.424 380.791 476.62 379.773C471.734 379.028 466.806 378.584 461.865 378.446C455.849 378.446 450.566 379.585 446.414 383.266C442.262 386.946 440.237 392.124 440.237 398.893C440.237 421.901 464.587 447.63 497.165 447.63Z" fill="black"/>
<ellipse rx="34.137" ry="14.8339" transform="matrix(-1 0 0 1 496.253 418.294)" fill="#FF0000"/>
</g>
<rect x="303" y="475" width="390" height="360" fill="#FF0000"/>
<path d="M424.406 591.501C424.406 600.486 421.32 607.38 415.148 612.185C409.016 616.95 400.148 619.333 388.547 619.333H361.066V533.669H417.434V552.243H384.328V565.31H387.668C399.66 565.31 408.781 567.497 415.031 571.872C421.281 576.208 424.406 582.751 424.406 591.501ZM384.328 601.462H387.434C392.277 601.462 395.754 600.661 397.863 599.06C399.973 597.458 401.027 595.095 401.027 591.97C401.027 588.845 399.895 586.54 397.629 585.056C395.402 583.572 391.965 582.829 387.316 582.829H384.328V601.462Z" fill="white"/>
<path d="M489.621 619.333H438.762V533.669H489.621V552.243H461.906V565.72H487.57V584.294H461.906V600.466H489.621V619.333Z" fill="white"/>
<path d="M542.766 551.423C537.258 551.423 532.961 553.689 529.875 558.22C526.789 562.712 525.246 568.923 525.246 576.853C525.246 593.337 531.516 601.579 544.055 601.579C547.844 601.579 551.516 601.052 555.07 599.997C558.625 598.943 562.199 597.673 565.793 596.189V615.759C558.645 618.923 550.559 620.505 541.535 620.505C528.605 620.505 518.684 616.755 511.77 609.255C504.895 601.755 501.457 590.915 501.457 576.736C501.457 567.868 503.117 560.075 506.438 553.357C509.797 546.638 514.602 541.482 520.852 537.888C527.141 534.255 534.523 532.439 543 532.439C552.258 532.439 561.105 534.45 569.543 538.474L562.453 556.697C559.289 555.212 556.125 553.962 552.961 552.947C549.797 551.931 546.398 551.423 542.766 551.423Z" fill="white"/>
<path d="M620.344 619.333H597.199V552.595H576.281V533.669H641.203V552.595H620.344V619.333Z" fill="white"/>
<path d="M419.402 709.333H397.415V645.932H377.543V627.952H439.219V645.932H419.402V709.333Z" fill="white"/>
<path d="M500.783 709.333L496.775 694.081H470.335L466.216 709.333H442.058L468.609 627.618H497.944L524.83 709.333H500.783ZM492.211 676.046L488.704 662.687C487.888 659.718 486.886 655.877 485.698 651.164C484.548 646.451 483.787 643.074 483.416 641.033C483.082 642.926 482.414 646.043 481.412 650.385C480.447 654.727 478.276 663.281 474.899 676.046H492.211Z" fill="white"/>
<path d="M533.681 627.952H553.274V662.909C553.274 666.62 552.978 674.042 552.384 685.175H552.829L585.281 627.952H612.445V709.333H592.963V675.267C592.963 670.109 593.297 662.39 593.965 652.111H593.52L560.789 709.333H533.681V627.952ZM572.868 621.44C563.999 621.44 557.356 619.714 552.94 616.263C548.562 612.812 546.112 607.468 545.593 600.232H563.739C563.925 603.868 564.723 606.503 566.133 608.136C567.543 609.769 569.788 610.585 572.868 610.585C578.435 610.585 581.478 607.134 581.997 600.232H600.422C598.9 614.37 589.716 621.44 572.868 621.44Z" fill="white"/>
<path d="M428.153 757.773H428.707C432.952 757.773 436.274 756.665 438.674 754.45C441.1 752.209 442.313 749.151 442.313 745.275C442.313 741.689 441.192 738.815 438.951 736.653C436.709 734.464 433.651 733.37 429.775 733.37H428.153V757.773ZM417.119 776.124V767.225H416.249C411.344 767.225 407.046 766.368 403.355 764.655C399.664 762.914 396.75 760.317 394.614 756.863C392.505 753.409 391.45 749.573 391.45 745.354C391.45 741.267 392.386 737.589 394.258 734.319C396.157 731.023 398.886 728.452 402.445 726.607C406.005 724.735 410.197 723.799 415.022 723.799H417.119V716.679H428.153V723.799H430.25C435.048 723.799 439.228 724.735 442.787 726.607C446.347 728.452 449.076 731.023 450.974 734.319C452.873 737.589 453.822 741.267 453.822 745.354C453.822 749.573 452.754 753.409 450.618 756.863C448.509 760.317 445.608 762.914 441.917 764.655C438.226 766.368 433.928 767.225 429.023 767.225H428.153V776.124H417.119ZM417.119 733.37H415.497C411.621 733.37 408.563 734.451 406.321 736.613C404.08 738.775 402.959 741.662 402.959 745.275C402.959 749.072 404.146 752.104 406.519 754.371C408.892 756.639 412.241 757.773 416.565 757.773H417.119V733.37Z" fill="white"/>
<path d="M477.038 744.721H481.072C484.843 744.721 487.664 743.983 489.536 742.506C491.408 741.003 492.344 738.828 492.344 735.98C492.344 733.106 491.553 730.984 489.971 729.613C488.416 728.241 485.963 727.556 482.615 727.556H477.038V744.721ZM504.724 735.545C504.724 741.768 502.772 746.527 498.87 749.823C494.994 753.119 489.47 754.767 482.298 754.767H477.038V775.333H464.777V717.51H483.248C490.261 717.51 495.587 719.026 499.226 722.058C502.891 725.064 504.724 729.56 504.724 735.545Z" fill="white"/>
<path d="M561.242 717.51L543.365 758.406C541.124 763.547 539.014 767.239 537.037 769.48C535.085 771.721 532.765 773.395 530.076 774.503C527.386 775.584 524.117 776.124 520.267 776.124C516.971 776.124 513.899 775.729 511.052 774.938V764.417C513.372 765.366 516.259 765.841 519.713 765.841C521.902 765.841 523.668 765.34 525.013 764.338C526.358 763.31 527.479 761.543 528.375 759.038L508.362 717.51H521.335L535.573 749.744H535.969L536.681 747.766L548.625 717.51H561.242Z" fill="white"/>
<path d="M590.865 775.333H578.605V727.714H562.903V717.51H606.567V727.714H590.865V775.333Z" fill="white"/>
<path d="M572.777 621.44C563.908 621.44 557.266 619.714 552.85 616.263C548.471 612.812 546.021 607.468 545.502 600.232H563.648C563.834 603.868 564.632 606.503 566.042 608.136C567.452 609.769 569.697 610.585 572.777 610.585C578.344 610.585 581.387 607.134 581.906 600.232H600.331C598.81 614.37 589.625 621.44 572.777 621.44Z" fill="white"/>
<path fill-rule="evenodd" clip-rule="evenodd" d="M549.136 620.975C543.061 616.187 540.119 609.045 539.517 600.661L539.056 594.232H569.35L569.641 599.926C569.8 603.05 570.462 604.072 570.581 604.213C570.607 604.232 570.678 604.277 570.834 604.334C571.14 604.445 571.744 604.585 572.777 604.585C574.232 604.585 574.588 604.194 574.734 604.029C575.053 603.667 575.715 602.554 575.923 599.781L576.341 594.232H607.011L606.297 600.874C605.403 609.176 602.136 616.14 595.961 620.892C589.938 625.528 581.946 627.44 572.777 627.44C563.298 627.44 555.084 625.624 549.155 620.99L549.136 620.975ZM563.648 600.232C563.834 603.868 564.632 606.503 566.042 608.136C567.452 609.769 569.697 610.585 572.777 610.585C578.344 610.585 581.387 607.134 581.906 600.232H600.331C600.098 602.398 599.685 604.398 599.092 606.232C595.816 616.37 587.044 621.44 572.777 621.44C563.908 621.44 557.266 619.714 552.85 616.263C549.784 613.847 547.664 610.503 546.49 606.232C545.987 604.402 545.658 602.402 545.502 600.232H563.648Z" fill="#FF0000"/>
</g>
<defs>
<linearGradient id="paint0_linear" x1="497.603" y1="15.8717" x2="481.523" y2="321.431" gradientUnits="userSpaceOnUse">
<stop stop-color="#009806"/>
<stop offset="1" stop-color="white" stop-opacity="0"/>
</linearGradient>
<clipPath id="clip0">
<path d="M0 0H995V835H0V0Z" fill="white"/>
</clipPath>
<clipPath id="clip1">
<path d="M101 0H895V712H101V0Z" fill="white"/>
</clipPath>
</defs>
</svg>
