<svg width="40" height="30" viewBox="0 0 40 30" fill="none" xmlns="http://www.w3.org/2000/svg">
<rect width="40" height="30" fill="#DE2910"/>
<path d="M7.49999 3L10.145 11.1406L3.22023 6.10942H11.7798L4.85496 11.1406L7.49999 3Z" fill="#FFDE00"/>
<path d="M15.587 1.6196L15.3365 4.46176L13.8686 2.01518L16.4942 3.13167L13.7138 3.77173L15.587 1.6196Z" fill="#FFDE00"/>
<path d="M19.0767 4.95557L17.7429 7.47781L17.3394 4.65331L19.326 6.70121L16.5151 6.21214L19.0767 4.95557Z" fill="#FFDE00"/>
<path d="M19.409 9.98564L17.1624 11.7444L17.9462 9.00098L18.9246 11.6811L16.5577 10.0879L19.409 9.98564Z" fill="#FFDE00"/>
<path d="M15.5292 12.0965L15.3968 14.9466L13.8287 12.563L16.4984 13.5696L13.7469 14.3244L15.5292 12.0965Z" fill="#FFDE00"/>
</svg>
