<svg width="40" height="30" viewBox="0 0 40 30" fill="none" xmlns="http://www.w3.org/2000/svg">
<g clip-path="url(#clip0)">
<path d="M0 0V30H40V0H0Z" fill="#00247D"/>
<path d="M0 0L40 30L0 0ZM40 0L0 30Z" fill="black"/>
<path d="M40 0L0 30M0 0L40 30L0 0Z" stroke="white" stroke-width="6"/>
<rect x="15" width="10" height="30" fill="white"/>
<rect y="10" width="40" height="10" fill="white"/>
<path fill-rule="evenodd" clip-rule="evenodd" d="M18.3333 15L-0.600006 0.799997L0.599994 -0.800003L20 13.75L39.4 -0.800003L40.6 0.799997L21.6667 15L40.6 29.2L39.4 30.8L20 16.25L0.599994 30.8L-0.600006 29.2L18.3333 15Z" fill="#CF142B"/>
<path fill-rule="evenodd" clip-rule="evenodd" d="M25 20V30H15V20H0V10H15V0H25V10H40V20H25Z" fill="white"/>
<path fill-rule="evenodd" clip-rule="evenodd" d="M23 18V30H17V18H0V12H17V0H23V12H40V18H23Z" fill="#CF142B"/>
</g>
<defs>
<clipPath id="clip0">
<rect width="40" height="30" fill="white"/>
</clipPath>
</defs>
</svg>
