<svg width="995" height="943" viewBox="0 0 995 943" fill="none" xmlns="http://www.w3.org/2000/svg">
<g clip-path="url(#clip0)">
<g clip-path="url(#clip1)">
<path fill-rule="evenodd" clip-rule="evenodd" d="M841.02 446.326C837.463 445.374 834.312 442.964 832.557 439.4C829.283 432.832 831.972 424.862 838.542 421.603C889.293 396.401 914.226 328.281 914.463 327.602C916.937 320.689 924.667 317.162 931.451 319.569C938.361 322.023 941.966 329.615 939.509 336.519C938.362 339.718 910.845 415.368 850.366 445.39C847.348 446.893 844.036 447.134 841.02 446.326Z" fill="black"/>
<path fill-rule="evenodd" clip-rule="evenodd" d="M978.709 517.039C978.709 428.367 906.765 356.481 818.02 356.481C777.23 356.481 740.122 371.78 711.785 396.8H711.772C707.253 400.798 702.973 405.047 698.919 409.523C621.565 480.984 649.809 587.73 611.797 625.512C565.557 671.475 570.887 743.268 648.108 755.991C820.346 784.384 922.98 638.766 922.98 638.766C949.256 610.174 978.709 558.899 978.709 517.039Z" fill="#FAD841"/>
<path fill-rule="evenodd" clip-rule="evenodd" d="M965.34 453.003C965.34 453.535 965.419 454.039 965.419 454.57C965.419 503.389 931.062 563.19 900.426 596.523C900.426 596.523 789.765 753.362 602.773 736.111C613.459 745.633 628.412 752.752 648.109 755.992C820.348 784.372 922.981 638.767 922.981 638.767C949.244 610.175 978.71 558.9 978.71 517.041C978.71 494.265 973.899 472.632 965.34 453.003Z" fill="#FAAC28"/>
<path fill-rule="evenodd" clip-rule="evenodd" d="M818.02 369.759C782.201 369.759 747.604 382.893 720.584 406.744C716.517 410.343 712.543 414.261 708.781 418.431C665.692 458.298 657.425 508.883 650.115 553.491C644.599 587.236 639.827 616.386 621.167 634.925C600.074 655.908 590.97 683.624 597.974 705.51C604.247 725.098 622.815 738.365 650.274 742.894C812.478 769.653 911.137 632.508 912.121 631.114C912.44 630.649 912.799 630.198 913.197 629.773C939.142 601.539 965.418 553.743 965.418 517.037C965.418 435.828 899.295 369.759 818.02 369.759ZM693.005 773C677.946 773 662.263 771.778 645.955 769.082C608.155 762.867 582.118 743.159 572.668 713.624C562.474 681.831 573.891 644.474 602.426 616.094C614.973 603.611 619.107 578.405 623.878 549.201C631.481 502.787 640.931 445.005 689.895 399.772C693.483 395.722 698.175 391.087 702.973 386.851C734.858 358.697 775.715 343.198 818.02 343.198C913.955 343.198 992 421.18 992 517.037C992 562.269 961.696 616.001 933.32 647.143C925 658.644 838.582 772.987 693.005 773Z" fill="black"/>
<path d="M738.09 528.59C749.329 528.59 758.439 519.489 758.439 508.263C758.439 497.038 749.329 487.937 738.09 487.937C726.852 487.937 717.741 497.038 717.741 508.263C717.741 519.489 726.852 528.59 738.09 528.59Z" fill="black"/>
<path d="M896.474 528.59C907.712 528.59 916.823 519.489 916.823 508.263C916.823 497.038 907.712 487.937 896.474 487.937C885.235 487.937 876.125 497.038 876.125 508.263C876.125 519.489 885.235 528.59 896.474 528.59Z" fill="black"/>
<path d="M817.767 628.177C781.267 628.177 753.988 599.378 753.988 573.626C753.988 566.049 756.319 560.159 760.908 556.134C769.136 548.905 781.004 550.444 794.749 552.225C802.372 553.364 810.061 554.008 817.767 554.153C825.473 554.008 833.162 553.364 840.785 552.225C846.259 551.391 851.78 550.894 857.315 550.739C864.056 550.739 869.974 552.014 874.626 556.134C879.278 560.254 881.547 566.049 881.547 573.626C881.547 599.378 854.267 628.177 817.767 628.177Z" fill="black"/>
<ellipse rx="38.5039" ry="16.8595" transform="matrix(-1 0 0 1 817.43 595.416)" fill="#FF0000"/>
<path d="M258.778 371.737C282.687 393.434 307.398 415.858 336.146 437.053C358.263 453.364 374.697 473.26 385.002 496.152C394.406 517.129 398.474 540.115 397.08 564.479C395.361 595.255 385.04 626.603 367.163 655.178C349.841 682.783 326.209 706.171 300.468 721.033C274.728 735.894 242.657 744.666 210.089 745.865C176.423 747.092 144.055 740.347 116.542 726.448C94.8018 715.44 76.9134 700.434 63.4654 681.792C48.7758 661.43 39.7632 637.25 36.6957 609.941C32.714 574.447 25.6499 541.836 18.8147 510.282L18.8011 510.219C9.21412 465.973 0.946033 427.743 4.04354 393.896C7.6027 355.074 25.8176 327.441 61.3752 306.912C96.9327 286.382 129.971 284.425 165.372 300.753C196.233 314.994 225.189 341.258 258.731 371.695L258.778 371.737Z" fill="#241E08"/>
<path d="M287.003 697.75C333.484 670.915 368.083 614.979 371.091 561.724C372.817 531.381 365.294 488.216 319.762 454.654C291.401 433.759 266.208 410.919 243.969 390.757L243.854 390.653C212.69 362.387 185.775 337.978 158.583 325.455C129.922 312.25 104.162 313.855 75.0615 330.656C45.9614 347.457 31.6913 368.963 28.7971 400.387C26.0454 430.198 33.7268 465.711 42.6846 506.83L42.7171 506.98C49.0583 536.321 56.2417 569.559 60.1576 604.568C66.4411 660.79 100.062 688.888 127.157 702.56C174.737 726.577 240.523 724.586 287.003 697.75Z" fill="#BDDD8B"/>
<path fill-rule="evenodd" clip-rule="evenodd" d="M371.128 561.053C355.627 606.932 319.219 652.023 275.254 677.407C231.304 702.781 174.039 711.766 126.581 702.267C126.773 702.365 126.965 702.463 127.157 702.559C174.736 726.576 240.523 724.585 287.003 697.75C333.484 670.915 368.083 614.979 371.091 561.724C371.104 561.501 371.116 561.277 371.128 561.053Z" fill="#96C251"/>
<path d="M154.587 576.186C157.464 551.053 168.436 531.726 185.488 521.881C202.54 512.036 224.744 512.165 248.008 522.249C268.337 531.094 286.223 546.34 295.862 563.035C315.683 597.366 302.638 642.131 266.845 662.796C231.052 683.461 185.803 672.353 165.982 638.021C156.343 621.326 152.078 598.205 154.587 576.186Z" fill="#523315"/>
<path d="M168.491 574.727C170.655 555.502 179.007 540.73 192.014 533.22C205.021 525.711 221.975 525.839 239.752 533.584C255.286 540.378 268.963 552.066 276.344 564.851C291.524 591.143 281.622 625.374 254.32 641.137C227.017 656.9 192.453 648.342 177.273 622.05C169.891 609.265 166.604 591.57 168.491 574.727Z" fill="#A87441"/>
<path d="M186.851 572.732C188.12 561.391 193.037 552.68 200.702 548.254C208.367 543.829 218.362 543.911 228.844 548.487C238.004 552.501 246.071 559.401 250.427 566.947C259.386 582.463 253.562 602.654 237.473 611.943C221.384 621.232 201.005 616.17 192.046 600.653C187.69 593.108 185.745 582.668 186.851 572.732Z" fill="#DBB684"/>
<path d="M119.09 559.495C128.514 554.054 131.742 542.004 126.302 532.58C120.861 523.157 108.811 519.928 99.387 525.369C89.9632 530.809 86.7344 542.86 92.1752 552.283C97.616 561.707 109.666 564.936 119.09 559.495Z" fill="black"/>
<path d="M251.898 482.818C261.322 477.377 264.551 465.327 259.11 455.904C253.669 446.48 241.619 443.251 232.195 448.692C222.772 454.133 219.543 466.183 224.984 475.606C230.424 485.03 242.475 488.259 251.898 482.818Z" fill="black"/>
<path fill-rule="evenodd" clip-rule="evenodd" d="M367.855 550.124C333.193 525.616 316.341 486.362 316.341 430.121C316.341 350.723 350.909 275.466 406.574 233.65L406.752 233.531C434.406 212.807 465.784 201.846 497.494 201.846C529.204 201.846 560.582 212.807 588.236 233.531L588.462 233.686C644.102 275.514 678.646 350.747 678.646 430.121C678.646 486.362 661.795 525.616 627.133 550.124C597.486 571.085 555.079 581.276 497.494 581.276C439.908 581.276 397.502 571.085 367.855 550.124Z" fill="#FFC700"/>
<path fill-rule="evenodd" clip-rule="evenodd" d="M691.377 411.312C691.773 415.921 691.975 420.579 691.975 425.281C691.975 458.641 681.801 489.835 664.125 516.426C659.876 530.367 648.127 543.141 630.903 553.781C596.33 583.339 549.825 601.442 498.68 601.442C464.143 601.442 431.722 593.188 403.662 578.725C439.945 585.489 478.396 584.438 516.59 574.204C601.929 551.338 665.454 488.133 691.377 411.312Z" fill="#FF9900"/>
<path d="M296.514 130.87C292.009 128.256 288.52 124.197 286.61 119.35C284.7 114.504 284.483 109.154 285.993 104.169C287.503 99.1829 290.651 94.8534 294.929 91.8819C299.206 88.9103 304.361 87.4709 309.558 87.7968C339.549 89.6236 367.417 95.6024 392.818 105.591C384.832 93.2522 375.815 81.6127 365.863 70.7975C362.364 66.941 360.269 62.0157 359.917 56.8194C359.566 51.6231 360.979 46.4603 363.926 42.1674C366.874 37.8745 371.185 34.703 376.159 33.1667C381.134 31.6304 386.482 31.8192 391.336 33.7027C415.786 42.9843 438.787 55.711 459.641 71.4974L475.058 16.9288C476.416 12.0318 479.351 7.71944 483.407 4.65923C487.463 1.59902 492.414 -0.0383174 497.494 0.00068084C502.578 -0.0328624 507.532 1.61252 511.586 4.68171C515.641 7.7509 518.569 12.0724 519.919 16.9762L535.335 71.5448C556.189 55.7585 579.19 43.0318 603.641 33.7502C608.488 31.8818 613.822 31.7011 618.785 33.2374C623.747 34.7736 628.047 37.9372 630.991 42.2178C633.936 46.4984 635.353 51.6465 635.015 56.8316C634.676 62.0167 632.601 66.9365 629.125 70.7975C619.182 81.6099 610.173 93.2453 602.194 105.579C627.595 95.555 655.463 89.5762 685.442 87.7849C690.639 87.459 695.794 88.8985 700.071 91.87C704.349 94.8416 707.497 99.171 709.007 104.157C710.517 109.142 710.3 114.492 708.39 119.338C706.48 124.185 702.99 128.244 698.486 130.858C669.859 147.348 632.078 176.02 610.056 220.517C667.215 267.624 702.376 346.938 702.376 430.108C702.376 493.728 681.671 540.609 640.829 569.483C607.032 593.386 560.143 605 497.494 605C434.845 605 387.956 593.386 354.171 569.495C313.329 540.621 292.624 493.739 292.624 430.12C292.624 346.95 327.785 267.6 384.944 220.529C362.91 176.032 325.141 147.36 296.514 130.87ZM316.342 430.12C316.342 486.361 333.193 525.615 367.855 550.123C397.502 571.084 439.909 581.275 497.494 581.275C555.08 581.275 597.486 571.084 627.133 550.123C661.795 525.615 678.647 486.361 678.647 430.12C678.647 350.746 644.102 275.513 588.462 233.685L588.236 233.53C560.582 212.806 529.204 201.845 497.494 201.845C465.784 201.845 434.406 212.806 406.752 233.53L406.574 233.649C350.909 275.465 316.342 350.722 316.342 430.12Z" fill="black"/>
<path d="M296.514 130.87C292.009 128.256 288.52 124.197 286.61 119.35C284.7 114.504 284.483 109.154 285.993 104.169C287.503 99.1829 290.651 94.8534 294.929 91.8819C299.206 88.9103 304.361 87.4709 309.558 87.7968C339.549 89.6236 367.417 95.6024 392.818 105.591C384.832 93.2522 375.815 81.6127 365.863 70.7975C362.364 66.941 360.269 62.0157 359.917 56.8194C359.566 51.6231 360.979 46.4603 363.926 42.1674C366.874 37.8745 371.185 34.703 376.159 33.1667C381.134 31.6304 386.482 31.8192 391.336 33.7027C415.786 42.9843 438.787 55.711 459.641 71.4974L475.058 16.9288C476.416 12.0318 479.351 7.71944 483.407 4.65923C487.463 1.59902 492.414 -0.0383174 497.494 0.00068084C502.578 -0.0328624 507.532 1.61252 511.586 4.68171C515.641 7.7509 518.569 12.0724 519.919 16.9762L535.335 71.5448C556.189 55.7585 579.19 43.0318 603.641 33.7502C608.488 31.8818 613.822 31.7011 618.785 33.2374C623.747 34.7736 628.047 37.9372 630.991 42.2178C633.936 46.4984 635.353 51.6465 635.015 56.8316C634.676 62.0167 632.601 66.9365 629.125 70.7975C619.182 81.6099 610.173 93.2453 602.194 105.579C627.595 95.555 655.463 89.5762 685.442 87.7849C690.639 87.459 695.794 88.8985 700.071 91.87C704.349 94.8416 707.497 99.171 709.007 104.157C710.517 109.142 710.3 114.492 708.39 119.338C706.48 124.185 702.99 128.244 698.486 130.858C669.859 147.348 632.078 176.02 610.056 220.517C667.215 267.624 702.376 346.938 702.376 430.108C702.376 493.728 681.671 540.609 640.829 569.483C607.032 593.386 560.143 605 497.494 605C434.845 605 387.956 593.386 354.171 569.495C313.329 540.621 292.624 493.739 292.624 430.12C292.624 346.95 327.785 267.6 384.944 220.529C362.91 176.032 325.141 147.36 296.514 130.87ZM316.342 430.12C316.342 486.361 333.193 525.615 367.855 550.123C397.502 571.084 439.909 581.275 497.494 581.275C555.08 581.275 597.486 571.084 627.133 550.123C661.795 525.615 678.647 486.361 678.647 430.12C678.647 350.746 644.102 275.513 588.462 233.685L588.236 233.53C560.582 212.806 529.204 201.845 497.494 201.845C465.784 201.845 434.406 212.806 406.752 233.53L406.574 233.649C350.909 275.465 316.342 350.722 316.342 430.12Z" fill="url(#paint0_linear)"/>
<path d="M586.517 431.945C573.884 431.945 563.643 421.7 563.643 409.062C563.643 396.425 573.884 386.18 586.517 386.18C599.151 386.18 609.392 396.425 609.392 409.062C609.392 421.7 599.151 431.945 586.517 431.945Z" fill="black"/>
<path d="M408.472 431.945C395.839 431.945 385.597 421.7 385.597 409.062C385.597 396.425 395.839 386.18 408.472 386.18C421.105 386.18 431.347 396.425 431.347 409.062C431.347 421.7 421.105 431.945 408.472 431.945Z" fill="black"/>
<path d="M496.948 544.061C537.979 544.061 568.646 511.64 568.646 482.648C568.646 474.118 566.025 467.487 560.866 462.956C551.617 454.818 538.276 456.55 522.824 458.555C514.255 459.837 505.611 460.562 496.948 460.725C488.285 460.562 479.642 459.837 471.073 458.555C464.919 457.616 458.713 457.057 452.49 456.882C444.913 456.882 438.26 458.317 433.03 462.956C427.801 467.594 425.251 474.118 425.251 482.648C425.251 511.64 455.918 544.061 496.948 544.061Z" fill="black"/>
<ellipse rx="42.9938" ry="18.6924" transform="matrix(-1 0 0 1 495.799 507.095)" fill="#FF0000"/>
</g>
<rect x="303" y="583" width="390" height="360" fill="#FF6600"/>
<path d="M363.82 640.669H393.703C405.344 640.669 413.977 642.407 419.602 645.884C425.266 649.322 428.098 654.693 428.098 661.997C428.098 666.802 426.867 670.904 424.406 674.302C421.945 677.7 418.703 679.888 414.68 680.864V681.45C419.992 682.857 423.84 685.2 426.223 688.482C428.605 691.763 429.797 696.021 429.797 701.255C429.797 709.029 426.867 715.161 421.008 719.654C415.188 724.107 407.238 726.333 397.16 726.333H363.82V640.669ZM386.965 673.54H393.938C397.258 673.54 399.816 672.857 401.613 671.489C403.449 670.122 404.367 668.091 404.367 665.396C404.367 660.591 400.734 658.189 393.469 658.189H386.965V673.54ZM386.965 690.474V708.462H395.109C402.336 708.462 405.949 705.415 405.949 699.322C405.949 696.47 404.973 694.282 403.02 692.759C401.105 691.236 398.313 690.474 394.641 690.474H386.965ZM495.539 726.333H444.68V640.669H495.539V659.243H467.824V672.72H493.488V691.294H467.824V707.466H495.539V726.333ZM566.555 700.318C566.555 705.63 565.207 710.357 562.512 714.497C559.816 718.599 555.93 721.802 550.852 724.107C545.773 726.372 539.816 727.505 532.981 727.505C527.277 727.505 522.492 727.115 518.625 726.333C514.758 725.513 510.734 724.107 506.555 722.115V701.49C510.969 703.755 515.559 705.532 520.324 706.822C525.09 708.072 529.465 708.697 533.449 708.697C536.887 708.697 539.406 708.111 541.008 706.939C542.609 705.728 543.41 704.185 543.41 702.31C543.41 701.138 543.078 700.122 542.414 699.263C541.789 698.365 540.754 697.466 539.309 696.568C537.902 695.669 534.113 693.833 527.941 691.06C522.356 688.521 518.156 686.06 515.344 683.677C512.57 681.294 510.5 678.56 509.133 675.474C507.805 672.388 507.141 668.736 507.141 664.517C507.141 656.626 510.012 650.474 515.754 646.06C521.496 641.646 529.387 639.439 539.426 639.439C548.293 639.439 557.336 641.489 566.555 645.591L559.465 663.462C551.457 659.79 544.543 657.954 538.723 657.954C535.715 657.954 533.527 658.482 532.16 659.536C530.793 660.591 530.109 661.9 530.109 663.462C530.109 665.142 530.969 666.646 532.688 667.974C534.445 669.302 539.172 671.724 546.867 675.239C554.25 678.56 559.367 682.134 562.219 685.962C565.109 689.751 566.555 694.536 566.555 700.318ZM617.59 726.333H594.445V659.595H573.527V640.669H638.449V659.595H617.59V726.333ZM404.039 817.333H382.052V753.932H362.18V735.952H423.855V753.932H404.039V817.333ZM505.236 817.333H483.138V784.157H457.588V817.333H435.489V735.952H457.588V766.122H483.138V735.952H505.236V817.333ZM572.813 817.333L568.805 802.081H542.364L538.245 817.333H514.087L540.639 735.618H569.974L596.859 817.333H572.813ZM564.24 784.046L560.733 770.687C559.917 767.718 558.915 763.877 557.728 759.164C556.577 754.451 555.816 751.074 555.445 749.033C555.111 750.926 554.443 754.043 553.441 758.385C552.477 762.727 550.306 771.281 546.929 784.046H564.24ZM605.71 817.333V735.952H627.809V817.333H605.71ZM378.596 882.333H366.533V824.51H399.677V834.556H378.596V849.467H398.213V859.473H378.596V882.333ZM423.249 850.178H427.204C431.08 850.178 433.941 849.532 435.787 848.24C437.632 846.948 438.555 844.918 438.555 842.15C438.555 839.407 437.606 837.456 435.708 836.296C433.835 835.136 430.922 834.556 426.967 834.556H423.249V850.178ZM423.249 860.145V882.333H410.988V824.51H427.837C435.694 824.51 441.508 825.947 445.279 828.821C449.049 831.669 450.935 836.006 450.935 841.833C450.935 845.235 449.999 848.267 448.126 850.93C446.254 853.567 443.605 855.636 440.177 857.139C448.878 870.138 454.547 878.536 457.184 882.333H443.578L429.775 860.145H423.249ZM511.526 824.51V861.925C511.526 866.197 510.564 869.941 508.639 873.157C506.741 876.374 503.985 878.84 500.373 880.553C496.761 882.267 492.489 883.124 487.559 883.124C480.123 883.124 474.349 881.226 470.235 877.429C466.122 873.606 464.065 868.385 464.065 861.767V824.51H476.287V859.908C476.287 864.364 477.183 867.634 478.976 869.717C480.769 871.8 483.735 872.841 487.875 872.841C491.883 872.841 494.783 871.8 496.576 869.717C498.396 867.607 499.305 864.311 499.305 859.829V824.51H511.526ZM525.686 882.333V824.51H537.946V882.333H525.686ZM574.808 882.333H562.547V834.714H546.845V824.51H590.509V834.714H574.808V882.333ZM633.541 866.276C633.541 871.496 631.655 875.61 627.885 878.615C624.141 881.621 618.92 883.124 612.223 883.124C606.053 883.124 600.595 881.964 595.849 879.644V868.253C599.751 869.993 603.047 871.219 605.736 871.931C608.452 872.643 610.931 872.999 613.172 872.999C615.861 872.999 617.918 872.485 619.342 871.457C620.792 870.428 621.517 868.899 621.517 866.869C621.517 865.735 621.201 864.733 620.568 863.863C619.935 862.967 618.999 862.11 617.76 861.292C616.547 860.475 614.055 859.17 610.285 857.377C606.751 855.716 604.102 854.12 602.335 852.591C600.568 851.062 599.158 849.282 598.103 847.252C597.048 845.221 596.521 842.848 596.521 840.133C596.521 835.017 598.248 830.996 601.702 828.07C605.183 825.143 609.981 823.679 616.099 823.679C619.105 823.679 621.965 824.035 624.681 824.747C627.423 825.459 630.284 826.461 633.264 827.753L629.309 837.285C626.224 836.019 623.666 835.136 621.636 834.635C619.632 834.134 617.654 833.884 615.703 833.884C613.383 833.884 611.603 834.424 610.364 835.505C609.125 836.586 608.505 837.997 608.505 839.737C608.505 840.818 608.755 841.767 609.256 842.585C609.757 843.376 610.548 844.154 611.629 844.918C612.737 845.656 615.334 847.001 619.421 848.952C624.826 851.536 628.531 854.134 630.535 856.744C632.539 859.328 633.541 862.505 633.541 866.276Z" fill="white"/>
</g>
<defs>
<linearGradient id="paint0_linear" x1="497.5" y1="8.48833e-07" x2="477.227" y2="385.036" gradientUnits="userSpaceOnUse">
<stop stop-color="#009806"/>
<stop offset="1" stop-color="white" stop-opacity="0"/>
</linearGradient>
<clipPath id="clip0">
<path d="M0 0H995V943H0V0Z" fill="white"/>
</clipPath>
<clipPath id="clip1">
<rect x="-2" y="-20" width="1000" height="897.196" fill="white"/>
</clipPath>
</defs>
</svg>
